<?xml version="1.0" encoding="UTF-8"?>
<svg width="539px" height="465px" viewBox="0 0 539 465" version="1.1" xmlns="http://www.w3.org/2000/svg" xmlns:xlink="http://www.w3.org/1999/xlink">
    <title>Group 12</title>
    <defs>
        <linearGradient x1="50%" y1="0%" x2="50%" y2="100%" id="linearGradient-1">
            <stop stop-color="#B0E5B4" offset="0%"></stop>
            <stop stop-color="#78C67D" offset="100%"></stop>
        </linearGradient>
    </defs>
    <g id="Web" stroke="none" stroke-width="1" fill="none" fill-rule="evenodd">
        <g id="About-/-Apollon" transform="translate(-453.000000, -1363.000000)">
            <g id="Group-13" transform="translate(353.000000, 775.000000)">
                <g id="Group-12" transform="translate(100.000000, 588.000000)">
                    <g id="Group-16" transform="translate(306.492118, 232.636039) rotate(-315.000000) translate(-306.492118, -232.636039) translate(154.992118, 55.636039)" fill-rule="nonzero">
                        <path d="M151,21 C223.349302,21 282,79.6506978 282,152 C282,224.349302 223.349302,283 151,283 C78.6506978,283 20,224.349302 20,152 C20,79.6506978 78.6506978,21 151,21 Z M151,29 C83.0689758,29 28,84.0689758 28,152 C28,219.931024 83.0689758,275 151,275 C218.931024,275 274,219.931024 274,152 C274,84.0689758 218.931024,29 151,29 Z" id="Oval" fill="url(#linearGradient-1)"></path>
                        <path d="M104.895192,256.563806 C104.895192,300.242433 69.5487786,335.79364 25.9097751,336.500296 L24.5848707,336.511017 L24.5848707,328.511017 C64.026178,328.511017 96.2450425,296.895442 96.8854757,257.752243 L96.8951917,256.563806 L104.895192,256.563806 Z" id="Oval" fill="#78C67D" transform="translate(64.740031, 296.537412) rotate(-45.000000) translate(-64.740031, -296.537412) "></path>
                        <polygon id="Path-3" fill="#78C67D" points="0.273475622 158.573216 22.2313305 138.117786 45.6263094 158.482965 40.3736906 164.517035 22.412 148.882 5.72652438 164.426784"></polygon>
                        <polygon id="Path-3-Copy" fill="#78C67D" transform="translate(279.949893, 151.317410) scale(1, -1) translate(-279.949893, -151.317410) " points="257.273476 158.573216 279.23133 138.117786 302.626309 158.482965 297.373691 164.517035 279.412 148.882 262.726524 164.426784"></polygon>
                        <polygon id="Path-3" fill="#78C67D" transform="translate(151.449893, 22.817410) rotate(-270.000000) translate(-151.449893, -22.817410) " points="128.773476 30.073216 150.73133 9.61778581 174.126309 29.9829652 168.873691 36.0170348 150.912 20.382 134.226524 35.926784"></polygon>
                        <polygon id="Path-3-Copy" fill="#78C67D" transform="translate(151.449893, 279.817410) scale(1, -1) rotate(-90.000000) translate(-151.449893, -279.817410) " points="128.773476 287.073216 150.73133 266.617786 174.126309 286.982965 168.873691 293.017035 150.912 277.382 134.226524 292.926784"></polygon>
                    </g>
                    <path d="M7.56884766,276.519709 C9.48974609,276.519709 11.027832,275.54217 11.793457,273.737483 L10.1870117,273.081233 C9.66748047,274.380061 8.81298828,274.872248 7.56884766,274.872248 C5.49755859,274.872248 4.61572266,273.402522 4.61572266,271.481623 C4.61572266,269.690608 5.49755859,268.220881 7.54150391,268.220881 C8.79931641,268.220881 9.79736328,268.713069 10.159668,269.984553 L11.7797852,269.341975 C11.0004883,267.537288 9.46923828,266.566584 7.55517578,266.566584 C4.37646484,266.566584 2.89306641,268.904475 2.89306641,271.549983 C2.89306641,274.202327 4.39013672,276.519709 7.56884766,276.519709 Z M16.7563477,276.519709 C19.347168,276.519709 20.4545898,274.981623 20.4545898,272.54803 L20.4545898,266.723811 L18.7182617,266.723811 L18.7182617,272.418147 C18.7182617,273.976741 18.3149414,274.844905 16.7563477,274.844905 C15.2045898,274.844905 14.7944336,273.976741 14.7944336,272.418147 L14.7944336,266.723811 L13.0649414,266.723811 L13.0649414,272.616389 C13.0649414,274.981623 14.1655273,276.519709 16.7563477,276.519709 Z M28.5825195,276.382991 L28.5825195,274.742366 L24.4536133,274.742366 L24.4536133,266.723811 L22.7172852,266.723811 L22.7172852,276.382991 L28.5825195,276.382991 Z M32.6635742,276.382991 L32.6635742,268.275569 L35.6850586,268.275569 L35.6850586,266.723811 L27.8989258,266.723811 L27.8989258,268.275569 L30.9272461,268.275569 L30.9272461,276.382991 L32.6635742,276.382991 Z M38.809082,276.382991 L38.809082,266.723811 L37.0727539,266.723811 L37.0727539,276.382991 L38.809082,276.382991 Z M45.3032227,276.382991 L49.1518555,266.723811 L47.2514648,266.723811 L44.6606445,273.566584 L42.0561523,266.723811 L40.1352539,266.723811 L44.0043945,276.382991 L45.3032227,276.382991 Z M50.3549805,276.382991 L51.1342773,274.284358 L54.8325195,274.284358 L55.6049805,276.382991 L57.4780273,276.382991 L53.6293945,266.723811 L52.3305664,266.723811 L48.4614258,276.382991 L50.3549805,276.382991 Z M54.2856445,272.800959 L51.6811523,272.800959 L52.9868164,269.273616 L54.2856445,272.800959 Z M61.5522461,276.382991 L61.5522461,268.275569 L64.5737305,268.275569 L64.5737305,266.723811 L56.7875977,266.723811 L56.7875977,268.275569 L59.815918,268.275569 L59.815918,276.382991 L61.5522461,276.382991 Z M67.6977539,276.382991 L67.6977539,266.723811 L65.9614258,266.723811 L65.9614258,276.382991 L67.6977539,276.382991 Z M74.1645508,276.519709 C77.3569336,276.519709 78.8266602,274.181819 78.8266602,271.549983 C78.8266602,268.918147 77.3569336,266.580256 74.1645508,266.580256 C70.972168,266.580256 69.5024414,268.918147 69.5024414,271.549983 C69.5024414,274.181819 70.972168,276.519709 74.1645508,276.519709 Z M74.1645508,274.981623 C72.0932617,274.981623 71.3344727,273.375178 71.3344727,271.549983 C71.3344727,269.731623 72.0932617,268.125178 74.1645508,268.125178 C76.2358398,268.125178 76.9946289,269.731623 76.9946289,271.549983 C76.9946289,273.375178 76.2358398,274.981623 74.1645508,274.981623 Z M82.2993164,276.382991 L82.2993164,269.594905 L86.3461914,276.382991 L88.0825195,276.382991 L88.0825195,266.723811 L86.4145508,266.723811 L86.4145508,273.477717 L82.3540039,266.723811 L80.6313477,266.723811 L80.6313477,276.382991 L82.2993164,276.382991 Z M91.3569336,278.45428 L93.0932617,274.578303 L91.1723633,274.578303 L90.2495117,278.45428 L91.3569336,278.45428 Z M2.0078125,293.382991 L2.0078125,289.377131 L3.31347656,289.377131 C5.28222656,289.377131 6.72460938,288.38592 6.72460938,286.581233 C6.72460938,284.756038 5.28222656,283.723811 3.31347656,283.723811 L0.28515625,283.723811 L0.28515625,293.382991 L2.0078125,293.382991 Z M3.31347656,287.757014 L2.0078125,287.757014 L2.0078125,285.343928 L3.31347656,285.343928 C4.48925781,285.343928 5.00195312,285.7951 5.00195312,286.581233 C5.00195312,287.346858 4.50292969,287.757014 3.31347656,287.757014 Z M10.1357422,293.382991 L10.1357422,289.254084 L11.2978516,289.254084 L13.6767578,293.382991 L15.6660156,293.382991 L12.9794922,289.083186 C14.0732422,288.707209 14.8662109,287.784358 14.8662109,286.567561 C14.8662109,284.756038 13.328125,283.723811 11.5234375,283.723811 L8.39941406,283.723811 L8.39941406,293.382991 L10.1357422,293.382991 Z M11.6806641,287.839045 L10.1494141,287.839045 L10.1494141,285.275569 L11.5371094,285.275569 C12.5283203,285.275569 13.1503906,285.7951 13.1503906,286.594905 C13.1503906,287.319514 12.6035156,287.79803 11.6806641,287.839045 Z M20.9775391,293.519709 C24.1699219,293.519709 25.6396484,291.181819 25.6396484,288.549983 C25.6396484,285.918147 24.1699219,283.580256 20.9775391,283.580256 C17.7851562,283.580256 16.3154297,285.918147 16.3154297,288.549983 C16.3154297,291.181819 17.7851562,293.519709 20.9775391,293.519709 Z M20.9775391,291.981623 C18.90625,291.981623 18.1474609,290.375178 18.1474609,288.549983 C18.1474609,286.731623 18.90625,285.125178 20.9775391,285.125178 C23.0488281,285.125178 23.8076172,286.731623 23.8076172,288.549983 C23.8076172,290.375178 23.0488281,291.981623 20.9775391,291.981623 Z M31.4365234,293.519709 C33.3574219,293.519709 34.8955078,292.54217 35.6611328,290.737483 L34.0546875,290.081233 C33.5351562,291.380061 32.6806641,291.872248 31.4365234,291.872248 C29.3652344,291.872248 28.4833984,290.402522 28.4833984,288.481623 C28.4833984,286.690608 29.3652344,285.220881 31.4091797,285.220881 C32.6669922,285.220881 33.6650391,285.713069 34.0273438,286.984553 L35.6474609,286.341975 C34.8681641,284.537288 33.3369141,283.566584 31.4228516,283.566584 C28.2441406,283.566584 26.7607422,285.904475 26.7607422,288.549983 C26.7607422,291.202327 28.2578125,293.519709 31.4365234,293.519709 Z M43.6591797,293.382991 L43.6591797,291.742366 L38.9697266,291.742366 L38.9697266,289.349788 L43.3378906,289.349788 L43.3378906,287.757014 L38.9697266,287.757014 L38.9697266,285.316584 L43.6591797,285.316584 L43.6591797,283.723811 L37.2333984,283.723811 L37.2333984,293.382991 L43.6591797,293.382991 Z M48.5058594,293.492366 C50.3515625,293.492366 51.8623047,292.39178 51.8623047,290.566584 C51.8623047,287.36053 47.1865234,287.975764 47.1865234,286.157405 C47.1865234,285.54217 47.7197266,285.125178 48.4033203,285.125178 C49.0527344,285.125178 49.6269531,285.501155 49.9619141,286.157405 L51.4042969,285.275569 C50.7412109,284.099788 49.6542969,283.580256 48.4648438,283.580256 C46.8378906,283.580256 45.4501953,284.537288 45.4501953,286.246272 C45.4501953,289.390803 50.1259766,288.720881 50.1259766,290.723811 C50.1259766,291.407405 49.5654297,291.95428 48.5332031,291.95428 C47.5078125,291.95428 46.6533203,291.421077 46.5302734,290.217952 L44.8076172,290.655452 C45.1152344,292.555842 46.796875,293.492366 48.5058594,293.492366 Z M56.2783203,293.492366 C58.1240234,293.492366 59.6347656,292.39178 59.6347656,290.566584 C59.6347656,287.36053 54.9589844,287.975764 54.9589844,286.157405 C54.9589844,285.54217 55.4921875,285.125178 56.1757812,285.125178 C56.8251953,285.125178 57.3994141,285.501155 57.734375,286.157405 L59.1767578,285.275569 C58.5136719,284.099788 57.4267578,283.580256 56.2373047,283.580256 C54.6103516,283.580256 53.2226562,284.537288 53.2226562,286.246272 C53.2226562,289.390803 57.8984375,288.720881 57.8984375,290.723811 C57.8984375,291.407405 57.3378906,291.95428 56.3056641,291.95428 C55.2802734,291.95428 54.4257812,291.421077 54.3027344,290.217952 L52.5800781,290.655452 C52.8876953,292.555842 54.5693359,293.492366 56.2783203,293.492366 Z M63.0253906,293.382991 L63.0253906,283.723811 L61.2890625,283.723811 L61.2890625,293.382991 L63.0253906,293.382991 Z M67.1816406,293.382991 L67.1816406,286.594905 L71.2285156,293.382991 L72.9648438,293.382991 L72.9648438,283.723811 L71.296875,283.723811 L71.296875,290.477717 L67.2363281,283.723811 L65.5136719,283.723811 L65.5136719,293.382991 L67.1816406,293.382991 Z M79.4453125,293.519709 C80.7304688,293.519709 81.7832031,292.931819 82.3027344,292.022639 L82.453125,293.382991 L83.8271484,293.382991 L83.8271484,288.160334 L79.9511719,288.160334 L79.9511719,289.561702 L82.0771484,289.561702 C82.0224609,291.133967 80.9560547,291.967952 79.4453125,291.967952 C77.3740234,291.967952 76.4921875,290.402522 76.4921875,288.481623 C76.4921875,286.690608 77.3740234,285.084163 79.4179688,285.084163 C80.6484375,285.084163 81.6601562,285.672053 82.1044922,286.984553 L83.6425781,286.341975 C82.8632812,284.537288 81.3320312,283.566584 79.4316406,283.566584 C76.2392578,283.566584 74.7695312,285.904475 74.7695312,288.549983 C74.7695312,291.202327 76.2666016,293.519709 79.4453125,293.519709 Z M95.4072266,293.902522 L96.5830078,292.849788 L95.1474609,291.236506 C95.5712891,290.518733 95.8242188,289.677913 95.8720703,288.789241 L94.2451172,288.625178 C94.2451172,289.083186 94.1630859,289.541194 94.0126953,289.965022 L92.6455078,288.433772 C93.5888672,287.79803 94.3886719,287.032405 94.3886719,285.863459 C94.3886719,284.591975 93.2265625,283.6076 91.8251953,283.6076 C90.5058594,283.6076 89.1523438,284.462092 89.1523438,285.877131 C89.1523438,286.916194 89.8701172,287.72967 90.2939453,288.153498 C89.1523438,288.830256 88.0585938,289.664241 88.0585938,291.127131 C88.0585938,292.685725 89.4599609,293.540217 91.2236328,293.540217 C92.3515625,293.540217 93.3496094,293.130061 94.1357422,292.446467 L95.4072266,293.902522 Z M91.5722656,287.415217 C91.2714844,287.066584 90.7587891,286.410334 90.7587891,285.904475 C90.7587891,285.261897 91.2646484,284.913264 91.8388672,284.913264 C92.4951172,284.913264 92.84375,285.378108 92.84375,285.890803 C92.84375,286.519709 92.296875,286.977717 91.5722656,287.415217 Z M91.1826172,292.125178 C90.2871094,292.125178 89.6650391,291.803889 89.6650391,291.154475 C89.6650391,290.35467 90.4238281,289.800959 91.3330078,289.240413 L93.1582031,291.325373 C92.6455078,291.817561 91.9755859,292.125178 91.1826172,292.125178 Z M8.32763672,310.382991 L8.32763672,308.742366 L3.63818359,308.742366 L3.63818359,306.349788 L8.00634766,306.349788 L8.00634766,304.757014 L3.63818359,304.757014 L3.63818359,302.316584 L8.32763672,302.316584 L8.32763672,300.723811 L1.90185547,300.723811 L1.90185547,310.382991 L8.32763672,310.382991 Z M11.4516602,310.382991 L13.7895508,306.712092 L16.1547852,310.382991 L18.2260742,310.382991 L14.9926758,305.549983 L18.2124023,300.723811 L16.1411133,300.723811 L13.8032227,304.449397 L11.465332,300.723811 L9.39404297,300.723811 L12.6137695,305.549983 L9.38037109,310.382991 L11.4516602,310.382991 Z M23.1342773,310.519709 C25.0551758,310.519709 26.5932617,309.54217 27.3588867,307.737483 L25.7524414,307.081233 C25.2329102,308.380061 24.378418,308.872248 23.1342773,308.872248 C21.0629883,308.872248 20.1811523,307.402522 20.1811523,305.481623 C20.1811523,303.690608 21.0629883,302.220881 23.1069336,302.220881 C24.3647461,302.220881 25.362793,302.713069 25.7250977,303.984553 L27.3452148,303.341975 C26.565918,301.537288 25.034668,300.566584 23.1206055,300.566584 C19.9418945,300.566584 18.4584961,302.904475 18.4584961,305.549983 C18.4584961,308.202327 19.9555664,310.519709 23.1342773,310.519709 Z M32.4790039,310.382991 L32.4790039,302.275569 L35.5004883,302.275569 L35.5004883,300.723811 L27.7143555,300.723811 L27.7143555,302.275569 L30.7426758,302.275569 L30.7426758,310.382991 L32.4790039,310.382991 Z M38.6245117,310.382991 L38.6245117,306.254084 L39.7866211,306.254084 L42.1655273,310.382991 L44.1547852,310.382991 L41.4682617,306.083186 C42.5620117,305.707209 43.3549805,304.784358 43.3549805,303.567561 C43.3549805,301.756038 41.8168945,300.723811 40.012207,300.723811 L36.8881836,300.723811 L36.8881836,310.382991 L38.6245117,310.382991 Z M40.1694336,304.839045 L38.6381836,304.839045 L38.6381836,302.275569 L40.0258789,302.275569 C41.0170898,302.275569 41.6391602,302.7951 41.6391602,303.594905 C41.6391602,304.319514 41.0922852,304.79803 40.1694336,304.839045 Z M46.2602539,310.382991 L47.0395508,308.284358 L50.737793,308.284358 L51.5102539,310.382991 L53.3833008,310.382991 L49.534668,300.723811 L48.2358398,300.723811 L44.3666992,310.382991 L46.2602539,310.382991 Z M50.190918,306.800959 L47.5864258,306.800959 L48.8920898,303.273616 L50.190918,306.800959 Z M58.2231445,310.519709 C60.144043,310.519709 61.6821289,309.54217 62.4477539,307.737483 L60.8413086,307.081233 C60.3217773,308.380061 59.4672852,308.872248 58.2231445,308.872248 C56.1518555,308.872248 55.2700195,307.402522 55.2700195,305.481623 C55.2700195,303.690608 56.1518555,302.220881 58.1958008,302.220881 C59.4536133,302.220881 60.4516602,302.713069 60.8139648,303.984553 L62.434082,303.341975 C61.6547852,301.537288 60.1235352,300.566584 58.2094727,300.566584 C55.0307617,300.566584 53.5473633,302.904475 53.5473633,305.549983 C53.5473633,308.202327 55.0444336,310.519709 58.2231445,310.519709 Z M67.5678711,310.382991 L67.5678711,302.275569 L70.5893555,302.275569 L70.5893555,300.723811 L62.8032227,300.723811 L62.8032227,302.275569 L65.831543,302.275569 L65.831543,310.382991 L67.5678711,310.382991 Z M73.7133789,310.382991 L73.7133789,300.723811 L71.9770508,300.723811 L71.9770508,310.382991 L73.7133789,310.382991 Z M80.1801758,310.519709 C83.3725586,310.519709 84.8422852,308.181819 84.8422852,305.549983 C84.8422852,302.918147 83.3725586,300.580256 80.1801758,300.580256 C76.987793,300.580256 75.5180664,302.918147 75.5180664,305.549983 C75.5180664,308.181819 76.987793,310.519709 80.1801758,310.519709 Z M80.1801758,308.981623 C78.1088867,308.981623 77.3500977,307.375178 77.3500977,305.549983 C77.3500977,303.731623 78.1088867,302.125178 80.1801758,302.125178 C82.2514648,302.125178 83.0102539,303.731623 83.0102539,305.549983 C83.0102539,307.375178 82.2514648,308.981623 80.1801758,308.981623 Z M88.3149414,310.382991 L88.3149414,303.594905 L92.3618164,310.382991 L94.0981445,310.382991 L94.0981445,300.723811 L92.4301758,300.723811 L92.4301758,307.477717 L88.3696289,300.723811 L86.6469727,300.723811 L86.6469727,310.382991 L88.3149414,310.382991 Z" id="CULTIVATION,PROCESSING&amp;EXCTRACTION" fill="#000000" fill-rule="nonzero"></path>
                    <path d="M108.51709,92.3829906 L108.51709,88.2540844 L109.679199,88.2540844 L112.058105,92.3829906 L114.047363,92.3829906 L111.36084,88.083186 C112.45459,87.7072094 113.247559,86.7843578 113.247559,85.567561 C113.247559,83.7560375 111.709473,82.723811 109.904785,82.723811 L106.780762,82.723811 L106.780762,92.3829906 L108.51709,92.3829906 Z M110.062012,86.8390453 L108.530762,86.8390453 L108.530762,84.2755688 L109.918457,84.2755688 C110.909668,84.2755688 111.531738,84.7951 111.531738,85.5949047 C111.531738,86.3195141 110.984863,86.7980297 110.062012,86.8390453 Z M121.874512,92.3829906 L121.874512,90.7423656 L117.185059,90.7423656 L117.185059,88.3497875 L121.553223,88.3497875 L121.553223,86.7570141 L117.185059,86.7570141 L117.185059,84.3165844 L121.874512,84.3165844 L121.874512,82.723811 L115.44873,82.723811 L115.44873,92.3829906 L121.874512,92.3829906 Z M126.721191,92.4923656 C128.566895,92.4923656 130.077637,91.3917797 130.077637,89.5665844 C130.077637,86.3605297 125.401855,86.9757641 125.401855,85.1574047 C125.401855,84.5421703 125.935059,84.1251781 126.618652,84.1251781 C127.268066,84.1251781 127.842285,84.5011547 128.177246,85.1574047 L129.619629,84.2755688 C128.956543,83.0997875 127.869629,82.5802563 126.680176,82.5802563 C125.053223,82.5802563 123.665527,83.5372875 123.665527,85.2462719 C123.665527,88.3908031 128.341309,87.7208813 128.341309,89.723811 C128.341309,90.4074047 127.780762,90.9542797 126.748535,90.9542797 C125.723145,90.9542797 124.868652,90.4210766 124.745605,89.2179516 L123.022949,89.6554516 C123.330566,91.5558422 125.012207,92.4923656 126.721191,92.4923656 Z M138.157715,92.3829906 L138.157715,90.7423656 L133.468262,90.7423656 L133.468262,88.3497875 L137.836426,88.3497875 L137.836426,86.7570141 L133.468262,86.7570141 L133.468262,84.3165844 L138.157715,84.3165844 L138.157715,82.723811 L131.731934,82.723811 L131.731934,92.3829906 L138.157715,92.3829906 Z M140.974121,92.3829906 L141.753418,90.2843578 L145.45166,90.2843578 L146.224121,92.3829906 L148.097168,92.3829906 L144.248535,82.723811 L142.949707,82.723811 L139.080566,92.3829906 L140.974121,92.3829906 Z M144.904785,88.8009594 L142.300293,88.8009594 L143.605957,85.2736156 L144.904785,88.8009594 Z M151.159668,92.3829906 L151.159668,88.2540844 L152.321777,88.2540844 L154.700684,92.3829906 L156.689941,92.3829906 L154.003418,88.083186 C155.097168,87.7072094 155.890137,86.7843578 155.890137,85.567561 C155.890137,83.7560375 154.352051,82.723811 152.547363,82.723811 L149.42334,82.723811 L149.42334,92.3829906 L151.159668,92.3829906 Z M152.70459,86.8390453 L151.17334,86.8390453 L151.17334,84.2755688 L152.561035,84.2755688 C153.552246,84.2755688 154.174316,84.7951 154.174316,85.5949047 C154.174316,86.3195141 153.627441,86.7980297 152.70459,86.8390453 Z M162.015137,92.5197094 C163.936035,92.5197094 165.474121,91.5421703 166.239746,89.7374828 L164.633301,89.0812328 C164.11377,90.380061 163.259277,90.8722485 162.015137,90.8722485 C159.943848,90.8722485 159.062012,89.4025219 159.062012,87.4816235 C159.062012,85.6906078 159.943848,84.2208813 161.987793,84.2208813 C163.245605,84.2208813 164.243652,84.7130688 164.605957,85.9845531 L166.226074,85.341975 C165.446777,83.5372875 163.915527,82.5665844 162.001465,82.5665844 C158.822754,82.5665844 157.339355,84.904475 157.339355,87.5499828 C157.339355,90.2023266 158.836426,92.5197094 162.015137,92.5197094 Z M169.54834,92.3829906 L169.54834,88.3497875 L173.779785,88.3497875 L173.779785,92.3829906 L175.516113,92.3829906 L175.516113,82.723811 L173.779785,82.723811 L173.779785,86.7570141 L169.54834,86.7570141 L169.54834,82.723811 L167.812012,82.723811 L167.812012,92.3829906 L169.54834,92.3829906 Z M187.472168,92.9025219 L188.647949,91.8497875 L187.212402,90.2365063 C187.63623,89.5187328 187.88916,88.6779125 187.937012,87.7892406 L186.310059,87.6251781 C186.310059,88.083186 186.228027,88.5411938 186.077637,88.9650219 L184.710449,87.4337719 C185.653809,86.7980297 186.453613,86.0324047 186.453613,84.8634594 C186.453613,83.591975 185.291504,82.6076 183.890137,82.6076 C182.570801,82.6076 181.217285,83.4620922 181.217285,84.8771313 C181.217285,85.9161938 181.935059,86.7296703 182.358887,87.1534985 C181.217285,87.8302563 180.123535,88.6642406 180.123535,90.1271313 C180.123535,91.685725 181.524902,92.5402172 183.288574,92.5402172 C184.416504,92.5402172 185.414551,92.130061 186.200684,91.4464672 L187.472168,92.9025219 Z M183.637207,86.4152172 C183.336426,86.0665844 182.82373,85.4103344 182.82373,84.904475 C182.82373,84.2618969 183.32959,83.9132641 183.903809,83.9132641 C184.560059,83.9132641 184.908691,84.3781078 184.908691,84.8908031 C184.908691,85.5197094 184.361816,85.9777172 183.637207,86.4152172 Z M183.247559,91.1251781 C182.352051,91.1251781 181.72998,90.8038891 181.72998,90.154475 C181.72998,89.3546703 182.48877,88.8009594 183.397949,88.2404125 L185.223145,90.3253735 C184.710449,90.817561 184.040527,91.1251781 183.247559,91.1251781 Z M100.939453,109.382991 C104.186523,109.382991 105.977539,107.632991 105.977539,104.625178 C105.977539,101.487483 104.241211,99.723811 100.953125,99.723811 L98.1503906,99.723811 L98.1503906,109.382991 L100.939453,109.382991 Z M100.768555,107.790217 L99.8867188,107.790217 L99.8867188,101.316584 L100.925781,101.316584 C103.304688,101.316584 104.241211,102.259944 104.241211,104.549983 C104.241211,106.963069 102.901367,107.790217 100.768555,107.790217 Z M114.208008,109.382991 L114.208008,107.742366 L109.518555,107.742366 L109.518555,105.349788 L113.886719,105.349788 L113.886719,103.757014 L109.518555,103.757014 L109.518555,101.316584 L114.208008,101.316584 L114.208008,99.723811 L107.782227,99.723811 L107.782227,109.382991 L114.208008,109.382991 Z M120.339844,109.382991 L124.188477,99.723811 L122.288086,99.723811 L119.697266,106.566584 L117.092773,99.723811 L115.171875,99.723811 L119.041016,109.382991 L120.339844,109.382991 Z M131.94043,109.382991 L131.94043,107.742366 L127.250977,107.742366 L127.250977,105.349788 L131.619141,105.349788 L131.619141,103.757014 L127.250977,103.757014 L127.250977,101.316584 L131.94043,101.316584 L131.94043,99.723811 L125.514648,99.723811 L125.514648,109.382991 L131.94043,109.382991 Z M139.890625,109.382991 L139.890625,107.742366 L135.761719,107.742366 L135.761719,99.723811 L134.025391,99.723811 L134.025391,109.382991 L139.890625,109.382991 Z M144.949219,109.519709 C148.141602,109.519709 149.611328,107.181819 149.611328,104.549983 C149.611328,101.918147 148.141602,99.5802563 144.949219,99.5802563 C141.756836,99.5802563 140.287109,101.918147 140.287109,104.549983 C140.287109,107.181819 141.756836,109.519709 144.949219,109.519709 Z M144.949219,107.981623 C142.87793,107.981623 142.119141,106.375178 142.119141,104.549983 C142.119141,102.731623 142.87793,101.125178 144.949219,101.125178 C147.020508,101.125178 147.779297,102.731623 147.779297,104.549983 C147.779297,106.375178 147.020508,107.981623 144.949219,107.981623 Z M153.138672,109.382991 L153.138672,105.377131 L154.444336,105.377131 C156.413086,105.377131 157.855469,104.38592 157.855469,102.581233 C157.855469,100.756038 156.413086,99.723811 154.444336,99.723811 L151.416016,99.723811 L151.416016,109.382991 L153.138672,109.382991 Z M154.444336,103.757014 L153.138672,103.757014 L153.138672,101.343928 L154.444336,101.343928 C155.620117,101.343928 156.132812,101.7951 156.132812,102.581233 C156.132812,103.346858 155.633789,103.757014 154.444336,103.757014 Z M161.198242,109.382991 L161.198242,102.171077 L163.59082,108.54217 L165.272461,108.54217 L167.665039,102.171077 L167.665039,109.382991 L169.333008,109.382991 L169.333008,99.723811 L166.995117,99.723811 L164.431641,106.593928 L161.868164,99.723811 L159.530273,99.723811 L159.530273,109.382991 L161.198242,109.382991 Z M178.24707,109.382991 L178.24707,107.742366 L173.557617,107.742366 L173.557617,105.349788 L177.925781,105.349788 L177.925781,103.757014 L173.557617,103.757014 L173.557617,101.316584 L178.24707,101.316584 L178.24707,99.723811 L171.821289,99.723811 L171.821289,109.382991 L178.24707,109.382991 Z M182,109.382991 L182,102.594905 L186.046875,109.382991 L187.783203,109.382991 L187.783203,99.723811 L186.115234,99.723811 L186.115234,106.477717 L182.054688,99.723811 L180.332031,99.723811 L180.332031,109.382991 L182,109.382991 Z M193.928711,109.382991 L193.928711,101.275569 L196.950195,101.275569 L196.950195,99.723811 L189.164062,99.723811 L189.164062,101.275569 L192.192383,101.275569 L192.192383,109.382991 L193.928711,109.382991 Z" id="RESEARCH&amp;DEVELOPMENT" fill="#000000" fill-rule="nonzero"></path>
                    <path d="M323.116753,164.311923 C349.421881,164.311923 371.147582,183.619062 374.47287,208.624036 C370.883122,185.952598 350.965928,168.604983 326.930974,168.604983 C300.355024,168.604983 277.721435,189.838542 278.811083,215.982546 C280.629585,259.678169 338.796227,281.193578 362.913881,232.622405 C341.814342,238.409715 326.961873,212.710407 303.51582,240.377293 C310.665325,247.078154 323.712015,245.311897 344.683414,241.521692 C315.013919,265.691854 283.849453,242.420031 283.654062,215.579009 L375.316234,215.579009 C372.95427,244.883306 352.902574,266.311923 323.116753,266.311923 C294.508733,266.311923 271.316234,243.478532 271.316234,215.31237 C271.316234,187.146208 294.508733,164.311923 323.116753,164.311923 Z M352.658588,181.917804 L353.493262,182.353909 C356.020367,183.674917 357.139421,186.870905 355.641809,189.263589 L340.590902,213.311923 L331.316234,213.311923 L345.622028,184.027609 C346.86019,181.494392 350.132407,180.597702 352.658588,181.917804 Z" id="Combined-Shape" fill="#78C67D"></path>
                    <path d="M446.597656,92.5197094 C448.518555,92.5197094 450.056641,91.5421703 450.822266,89.7374828 L449.21582,89.0812328 C448.696289,90.380061 447.841797,90.8722485 446.597656,90.8722485 C444.526367,90.8722485 443.644531,89.4025219 443.644531,87.4816235 C443.644531,85.6906078 444.526367,84.2208813 446.570312,84.2208813 C447.828125,84.2208813 448.826172,84.7130688 449.188477,85.9845531 L450.808594,85.341975 C450.029297,83.5372875 448.498047,82.5665844 446.583984,82.5665844 C443.405273,82.5665844 441.921875,84.904475 441.921875,87.5499828 C441.921875,90.2023266 443.418945,92.5197094 446.597656,92.5197094 Z M458.259766,92.3829906 L458.259766,90.7423656 L454.130859,90.7423656 L454.130859,82.723811 L452.394531,82.723811 L452.394531,92.3829906 L458.259766,92.3829906 Z M461.397461,92.3829906 L461.397461,82.723811 L459.661133,82.723811 L459.661133,92.3829906 L461.397461,92.3829906 Z M465.553711,92.3829906 L465.553711,85.5949047 L469.600586,92.3829906 L471.336914,92.3829906 L471.336914,82.723811 L469.668945,82.723811 L469.668945,89.4777172 L465.608398,82.723811 L463.885742,82.723811 L463.885742,92.3829906 L465.553711,92.3829906 Z M475.561523,92.3829906 L475.561523,82.723811 L473.825195,82.723811 L473.825195,92.3829906 L475.561523,92.3829906 Z M482.041992,92.5197094 C483.962891,92.5197094 485.500977,91.5421703 486.266602,89.7374828 L484.660156,89.0812328 C484.140625,90.380061 483.286133,90.8722485 482.041992,90.8722485 C479.970703,90.8722485 479.088867,89.4025219 479.088867,87.4816235 C479.088867,85.6906078 479.970703,84.2208813 482.014648,84.2208813 C483.272461,84.2208813 484.270508,84.7130688 484.632812,85.9845531 L486.25293,85.341975 C485.473633,83.5372875 483.942383,82.5665844 482.02832,82.5665844 C478.849609,82.5665844 477.366211,84.904475 477.366211,87.5499828 C477.366211,90.2023266 478.863281,92.5197094 482.041992,92.5197094 Z M488.166992,92.3829906 L488.946289,90.2843578 L492.644531,90.2843578 L493.416992,92.3829906 L495.290039,92.3829906 L491.441406,82.723811 L490.142578,82.723811 L486.273438,92.3829906 L488.166992,92.3829906 Z M492.097656,88.8009594 L489.493164,88.8009594 L490.798828,85.2736156 L492.097656,88.8009594 Z M502.481445,92.3829906 L502.481445,90.7423656 L498.352539,90.7423656 L498.352539,82.723811 L496.616211,82.723811 L496.616211,92.3829906 L502.481445,92.3829906 Z M454.291504,109.382991 L454.291504,101.275569 L457.312988,101.275569 L457.312988,99.723811 L449.526855,99.723811 L449.526855,101.275569 L452.555176,101.275569 L452.555176,109.382991 L454.291504,109.382991 Z M460.437012,109.382991 L460.437012,105.254084 L461.599121,105.254084 L463.978027,109.382991 L465.967285,109.382991 L463.280762,105.083186 C464.374512,104.707209 465.16748,103.784358 465.16748,102.567561 C465.16748,100.756038 463.629395,99.723811 461.824707,99.723811 L458.700684,99.723811 L458.700684,109.382991 L460.437012,109.382991 Z M461.981934,103.839045 L460.450684,103.839045 L460.450684,101.275569 L461.838379,101.275569 C462.82959,101.275569 463.45166,101.7951 463.45166,102.594905 C463.45166,103.319514 462.904785,103.79803 461.981934,103.839045 Z M469.10498,109.382991 L469.10498,99.723811 L467.368652,99.723811 L467.368652,109.382991 L469.10498,109.382991 Z M472.324707,109.382991 L473.104004,107.284358 L476.802246,107.284358 L477.574707,109.382991 L479.447754,109.382991 L475.599121,99.723811 L474.300293,99.723811 L470.431152,109.382991 L472.324707,109.382991 Z M476.255371,105.800959 L473.650879,105.800959 L474.956543,102.273616 L476.255371,105.800959 Z M486.63916,109.382991 L486.63916,107.742366 L482.510254,107.742366 L482.510254,99.723811 L480.773926,99.723811 L480.773926,109.382991 L486.63916,109.382991 Z M490.843262,109.492366 C492.688965,109.492366 494.199707,108.39178 494.199707,106.566584 C494.199707,103.36053 489.523926,103.975764 489.523926,102.157405 C489.523926,101.54217 490.057129,101.125178 490.740723,101.125178 C491.390137,101.125178 491.964355,101.501155 492.299316,102.157405 L493.741699,101.275569 C493.078613,100.099788 491.991699,99.5802563 490.802246,99.5802563 C489.175293,99.5802563 487.787598,100.537288 487.787598,102.246272 C487.787598,105.390803 492.463379,104.720881 492.463379,106.723811 C492.463379,107.407405 491.902832,107.95428 490.870605,107.95428 C489.845215,107.95428 488.990723,107.421077 488.867676,106.217952 L487.14502,106.655452 C487.452637,108.555842 489.134277,109.492366 490.843262,109.492366 Z" id="CLINICALTRIALS" fill="#000000" fill-rule="nonzero"></path>
                    <path d="M445.95166,342.382991 C447.592285,342.382991 449.103027,341.378108 449.103027,339.580256 C449.103027,338.616389 448.433105,337.563655 447.55127,337.215022 C448.098145,336.921077 448.624512,336.210139 448.624512,335.328303 C448.624512,333.393733 447.004395,332.723811 445.534668,332.723811 L442.185059,332.723811 L442.185059,342.382991 L445.95166,342.382991 Z M445.69873,336.613459 L443.921387,336.613459 L443.921387,334.289241 L445.562012,334.289241 C446.38916,334.289241 447.031738,334.672053 447.031738,335.424006 C447.031738,336.374202 446.375488,336.613459 445.69873,336.613459 Z M445.979004,340.728694 L443.921387,340.728694 L443.921387,338.11053 L445.910645,338.11053 C446.819824,338.11053 447.394043,338.69842 447.394043,339.38885 C447.394043,340.29803 446.874512,340.728694 445.979004,340.728694 Z M457.319824,342.382991 L457.319824,340.742366 L452.630371,340.742366 L452.630371,338.349788 L456.998535,338.349788 L456.998535,336.757014 L452.630371,336.757014 L452.630371,334.316584 L457.319824,334.316584 L457.319824,332.723811 L450.894043,332.723811 L450.894043,342.382991 L457.319824,342.382991 Z M462.166504,342.492366 C464.012207,342.492366 465.522949,341.39178 465.522949,339.566584 C465.522949,336.36053 460.847168,336.975764 460.847168,335.157405 C460.847168,334.54217 461.380371,334.125178 462.063965,334.125178 C462.713379,334.125178 463.287598,334.501155 463.622559,335.157405 L465.064941,334.275569 C464.401855,333.099788 463.314941,332.580256 462.125488,332.580256 C460.498535,332.580256 459.11084,333.537288 459.11084,335.246272 C459.11084,338.390803 463.786621,337.720881 463.786621,339.723811 C463.786621,340.407405 463.226074,340.95428 462.193848,340.95428 C461.168457,340.95428 460.313965,340.421077 460.190918,339.217952 L458.468262,339.655452 C458.775879,341.555842 460.45752,342.492366 462.166504,342.492366 Z M468.899902,342.382991 L468.899902,338.377131 L470.205566,338.377131 C472.174316,338.377131 473.616699,337.38592 473.616699,335.581233 C473.616699,333.756038 472.174316,332.723811 470.205566,332.723811 L467.177246,332.723811 L467.177246,342.382991 L468.899902,342.382991 Z M470.205566,336.757014 L468.899902,336.757014 L468.899902,334.343928 L470.205566,334.343928 C471.381348,334.343928 471.894043,334.7951 471.894043,335.581233 C471.894043,336.346858 471.39502,336.757014 470.205566,336.757014 Z M479.133301,342.519709 C482.325684,342.519709 483.79541,340.181819 483.79541,337.549983 C483.79541,334.918147 482.325684,332.580256 479.133301,332.580256 C475.940918,332.580256 474.471191,334.918147 474.471191,337.549983 C474.471191,340.181819 475.940918,342.519709 479.133301,342.519709 Z M479.133301,340.981623 C477.062012,340.981623 476.303223,339.375178 476.303223,337.549983 C476.303223,335.731623 477.062012,334.125178 479.133301,334.125178 C481.20459,334.125178 481.963379,335.731623 481.963379,337.549983 C481.963379,339.375178 481.20459,340.981623 479.133301,340.981623 Z M487.336426,342.382991 L487.336426,339.874202 L489.29834,337.843928 L492.278809,342.382991 L494.438965,342.382991 L490.501465,336.681819 L494.36377,332.723811 L492.039551,332.723811 L487.336426,337.761897 L487.336426,332.723811 L485.600098,332.723811 L485.600098,342.382991 L487.336426,342.382991 Z M502.218262,342.382991 L502.218262,340.742366 L497.528809,340.742366 L497.528809,338.349788 L501.896973,338.349788 L501.896973,336.757014 L497.528809,336.757014 L497.528809,334.316584 L502.218262,334.316584 L502.218262,332.723811 L495.79248,332.723811 L495.79248,342.382991 L502.218262,342.382991 Z M432.819824,359.382991 L432.819824,351.275569 L435.841309,351.275569 L435.841309,349.723811 L428.055176,349.723811 L428.055176,351.275569 L431.083496,351.275569 L431.083496,359.382991 L432.819824,359.382991 Z M438.965332,359.382991 L438.965332,355.254084 L440.127441,355.254084 L442.506348,359.382991 L444.495605,359.382991 L441.809082,355.083186 C442.902832,354.707209 443.695801,353.784358 443.695801,352.567561 C443.695801,350.756038 442.157715,349.723811 440.353027,349.723811 L437.229004,349.723811 L437.229004,359.382991 L438.965332,359.382991 Z M440.510254,353.839045 L438.979004,353.839045 L438.979004,351.275569 L440.366699,351.275569 C441.35791,351.275569 441.97998,351.7951 441.97998,352.594905 C441.97998,353.319514 441.433105,353.79803 440.510254,353.839045 Z M452.322754,359.382991 L452.322754,357.742366 L447.633301,357.742366 L447.633301,355.349788 L452.001465,355.349788 L452.001465,353.757014 L447.633301,353.757014 L447.633301,351.316584 L452.322754,351.316584 L452.322754,349.723811 L445.896973,349.723811 L445.896973,359.382991 L452.322754,359.382991 Z M455.13916,359.382991 L455.918457,357.284358 L459.616699,357.284358 L460.38916,359.382991 L462.262207,359.382991 L458.413574,349.723811 L457.114746,349.723811 L453.245605,359.382991 L455.13916,359.382991 Z M459.069824,355.800959 L456.465332,355.800959 L457.770996,352.273616 L459.069824,355.800959 Z M466.336426,359.382991 L466.336426,351.275569 L469.35791,351.275569 L469.35791,349.723811 L461.571777,349.723811 L461.571777,351.275569 L464.600098,351.275569 L464.600098,359.382991 L466.336426,359.382991 Z M472.413574,359.382991 L472.413574,352.171077 L474.806152,358.54217 L476.487793,358.54217 L478.880371,352.171077 L478.880371,359.382991 L480.54834,359.382991 L480.54834,349.723811 L478.210449,349.723811 L475.646973,356.593928 L473.083496,349.723811 L470.745605,349.723811 L470.745605,359.382991 L472.413574,359.382991 Z M489.462402,359.382991 L489.462402,357.742366 L484.772949,357.742366 L484.772949,355.349788 L489.141113,355.349788 L489.141113,353.757014 L484.772949,353.757014 L484.772949,351.316584 L489.462402,351.316584 L489.462402,349.723811 L483.036621,349.723811 L483.036621,359.382991 L489.462402,359.382991 Z M493.215332,359.382991 L493.215332,352.594905 L497.262207,359.382991 L498.998535,359.382991 L498.998535,349.723811 L497.330566,349.723811 L497.330566,356.477717 L493.27002,349.723811 L491.547363,349.723811 L491.547363,359.382991 L493.215332,359.382991 Z M505.144043,359.382991 L505.144043,351.275569 L508.165527,351.275569 L508.165527,349.723811 L500.379395,349.723811 L500.379395,351.275569 L503.407715,351.275569 L503.407715,359.382991 L505.144043,359.382991 Z M512.314941,359.492366 C514.160645,359.492366 515.671387,358.39178 515.671387,356.566584 C515.671387,353.36053 510.995605,353.975764 510.995605,352.157405 C510.995605,351.54217 511.528809,351.125178 512.212402,351.125178 C512.861816,351.125178 513.436035,351.501155 513.770996,352.157405 L515.213379,351.275569 C514.550293,350.099788 513.463379,349.580256 512.273926,349.580256 C510.646973,349.580256 509.259277,350.537288 509.259277,352.246272 C509.259277,355.390803 513.935059,354.720881 513.935059,356.723811 C513.935059,357.407405 513.374512,357.95428 512.342285,357.95428 C511.316895,357.95428 510.462402,357.421077 510.339355,356.217952 L508.616699,356.655452 C508.924316,358.555842 510.605957,359.492366 512.314941,359.492366 Z M422.039551,376.382991 L422.818848,374.284358 L426.51709,374.284358 L427.289551,376.382991 L429.162598,376.382991 L425.313965,366.723811 L424.015137,366.723811 L420.145996,376.382991 L422.039551,376.382991 Z M425.970215,372.800959 L423.365723,372.800959 L424.671387,369.273616 L425.970215,372.800959 Z M432.156738,376.382991 L432.156738,369.594905 L436.203613,376.382991 L437.939941,376.382991 L437.939941,366.723811 L436.271973,366.723811 L436.271973,373.477717 L432.211426,366.723811 L430.48877,366.723811 L430.48877,376.382991 L432.156738,376.382991 Z M443.217285,376.382991 C446.464355,376.382991 448.255371,374.632991 448.255371,371.625178 C448.255371,368.487483 446.519043,366.723811 443.230957,366.723811 L440.428223,366.723811 L440.428223,376.382991 L443.217285,376.382991 Z M443.046387,374.790217 L442.164551,374.790217 L442.164551,368.316584 L443.203613,368.316584 C445.58252,368.316584 446.519043,369.259944 446.519043,371.549983 C446.519043,373.963069 445.179199,374.790217 443.046387,374.790217 Z M455.159668,376.382991 L455.159668,372.377131 L456.465332,372.377131 C458.434082,372.377131 459.876465,371.38592 459.876465,369.581233 C459.876465,367.756038 458.434082,366.723811 456.465332,366.723811 L453.437012,366.723811 L453.437012,376.382991 L455.159668,376.382991 Z M456.465332,370.757014 L455.159668,370.757014 L455.159668,368.343928 L456.465332,368.343928 C457.641113,368.343928 458.153809,368.7951 458.153809,369.581233 C458.153809,370.346858 457.654785,370.757014 456.465332,370.757014 Z M463.287598,376.382991 L463.287598,372.254084 L464.449707,372.254084 L466.828613,376.382991 L468.817871,376.382991 L466.131348,372.083186 C467.225098,371.707209 468.018066,370.784358 468.018066,369.567561 C468.018066,367.756038 466.47998,366.723811 464.675293,366.723811 L461.55127,366.723811 L461.55127,376.382991 L463.287598,376.382991 Z M464.83252,370.839045 L463.30127,370.839045 L463.30127,368.275569 L464.688965,368.275569 C465.680176,368.275569 466.302246,368.7951 466.302246,369.594905 C466.302246,370.319514 465.755371,370.79803 464.83252,370.839045 Z M474.129395,376.519709 C477.321777,376.519709 478.791504,374.181819 478.791504,371.549983 C478.791504,368.918147 477.321777,366.580256 474.129395,366.580256 C470.937012,366.580256 469.467285,368.918147 469.467285,371.549983 C469.467285,374.181819 470.937012,376.519709 474.129395,376.519709 Z M474.129395,374.981623 C472.058105,374.981623 471.299316,373.375178 471.299316,371.549983 C471.299316,369.731623 472.058105,368.125178 474.129395,368.125178 C476.200684,368.125178 476.959473,369.731623 476.959473,371.549983 C476.959473,373.375178 476.200684,374.981623 474.129395,374.981623 Z M483.385254,376.382991 C486.632324,376.382991 488.42334,374.632991 488.42334,371.625178 C488.42334,368.487483 486.687012,366.723811 483.398926,366.723811 L480.596191,366.723811 L480.596191,376.382991 L483.385254,376.382991 Z M483.214355,374.790217 L482.33252,374.790217 L482.33252,368.316584 L483.371582,368.316584 C485.750488,368.316584 486.687012,369.259944 486.687012,371.549983 C486.687012,373.963069 485.347168,374.790217 483.214355,374.790217 Z M493.700684,376.519709 C496.291504,376.519709 497.398926,374.981623 497.398926,372.54803 L497.398926,366.723811 L495.662598,366.723811 L495.662598,372.418147 C495.662598,373.976741 495.259277,374.844905 493.700684,374.844905 C492.148926,374.844905 491.73877,373.976741 491.73877,372.418147 L491.73877,366.723811 L490.009277,366.723811 L490.009277,372.616389 C490.009277,374.981623 491.109863,376.519709 493.700684,376.519709 Z M503.653809,376.519709 C505.574707,376.519709 507.112793,375.54217 507.878418,373.737483 L506.271973,373.081233 C505.752441,374.380061 504.897949,374.872248 503.653809,374.872248 C501.58252,374.872248 500.700684,373.402522 500.700684,371.481623 C500.700684,369.690608 501.58252,368.220881 503.626465,368.220881 C504.884277,368.220881 505.882324,368.713069 506.244629,369.984553 L507.864746,369.341975 C507.085449,367.537288 505.554199,366.566584 503.640137,366.566584 C500.461426,366.566584 498.978027,368.904475 498.978027,371.549983 C498.978027,374.202327 500.475098,376.519709 503.653809,376.519709 Z M512.998535,376.382991 L512.998535,368.275569 L516.02002,368.275569 L516.02002,366.723811 L508.233887,366.723811 L508.233887,368.275569 L511.262207,368.275569 L511.262207,376.382991 L512.998535,376.382991 Z M520.169434,376.492366 C522.015137,376.492366 523.525879,375.39178 523.525879,373.566584 C523.525879,370.36053 518.850098,370.975764 518.850098,369.157405 C518.850098,368.54217 519.383301,368.125178 520.066895,368.125178 C520.716309,368.125178 521.290527,368.501155 521.625488,369.157405 L523.067871,368.275569 C522.404785,367.099788 521.317871,366.580256 520.128418,366.580256 C518.501465,366.580256 517.11377,367.537288 517.11377,369.246272 C517.11377,372.390803 521.789551,371.720881 521.789551,373.723811 C521.789551,374.407405 521.229004,374.95428 520.196777,374.95428 C519.171387,374.95428 518.316895,374.421077 518.193848,373.217952 L516.471191,373.655452 C516.778809,375.555842 518.460449,376.492366 520.169434,376.492366 Z" id="BESPOKETREATMENTSANDPRODUCTS" fill="#000000" fill-rule="nonzero"></path>
                    <path d="M159.391113,342.382991 L159.391113,338.254084 L160.553223,338.254084 L162.932129,342.382991 L164.921387,342.382991 L162.234863,338.083186 C163.328613,337.707209 164.121582,336.784358 164.121582,335.567561 C164.121582,333.756038 162.583496,332.723811 160.778809,332.723811 L157.654785,332.723811 L157.654785,342.382991 L159.391113,342.382991 Z M160.936035,336.839045 L159.404785,336.839045 L159.404785,334.275569 L160.79248,334.275569 C161.783691,334.275569 162.405762,334.7951 162.405762,335.594905 C162.405762,336.319514 161.858887,336.79803 160.936035,336.839045 Z M172.748535,342.382991 L172.748535,340.742366 L168.059082,340.742366 L168.059082,338.349788 L172.427246,338.349788 L172.427246,336.757014 L168.059082,336.757014 L168.059082,334.316584 L172.748535,334.316584 L172.748535,332.723811 L166.322754,332.723811 L166.322754,342.382991 L172.748535,342.382991 Z M178.661621,342.382991 L178.661621,334.275569 L181.683105,334.275569 L181.683105,332.723811 L173.896973,332.723811 L173.896973,334.275569 L176.925293,334.275569 L176.925293,342.382991 L178.661621,342.382991 Z M182.893066,342.382991 L183.672363,340.284358 L187.370605,340.284358 L188.143066,342.382991 L190.016113,342.382991 L186.16748,332.723811 L184.868652,332.723811 L180.999512,342.382991 L182.893066,342.382991 Z M186.82373,338.800959 L184.219238,338.800959 L185.524902,335.273616 L186.82373,338.800959 Z M193.078613,342.382991 L193.078613,332.723811 L191.342285,332.723811 L191.342285,342.382991 L193.078613,342.382991 Z M201.432129,342.382991 L201.432129,340.742366 L197.303223,340.742366 L197.303223,332.723811 L195.566895,332.723811 L195.566895,342.382991 L201.432129,342.382991 Z M149.981445,359.382991 L149.981445,355.377131 L151.287109,355.377131 C153.255859,355.377131 154.698242,354.38592 154.698242,352.581233 C154.698242,350.756038 153.255859,349.723811 151.287109,349.723811 L148.258789,349.723811 L148.258789,359.382991 L149.981445,359.382991 Z M151.287109,353.757014 L149.981445,353.757014 L149.981445,351.343928 L151.287109,351.343928 C152.462891,351.343928 152.975586,351.7951 152.975586,352.581233 C152.975586,353.346858 152.476562,353.757014 151.287109,353.757014 Z M158.109375,359.382991 L158.109375,355.254084 L159.271484,355.254084 L161.650391,359.382991 L163.639648,359.382991 L160.953125,355.083186 C162.046875,354.707209 162.839844,353.784358 162.839844,352.567561 C162.839844,350.756038 161.301758,349.723811 159.49707,349.723811 L156.373047,349.723811 L156.373047,359.382991 L158.109375,359.382991 Z M159.654297,353.839045 L158.123047,353.839045 L158.123047,351.275569 L159.510742,351.275569 C160.501953,351.275569 161.124023,351.7951 161.124023,352.594905 C161.124023,353.319514 160.577148,353.79803 159.654297,353.839045 Z M168.951172,359.519709 C172.143555,359.519709 173.613281,357.181819 173.613281,354.549983 C173.613281,351.918147 172.143555,349.580256 168.951172,349.580256 C165.758789,349.580256 164.289062,351.918147 164.289062,354.549983 C164.289062,357.181819 165.758789,359.519709 168.951172,359.519709 Z M168.951172,357.981623 C166.879883,357.981623 166.121094,356.375178 166.121094,354.549983 C166.121094,352.731623 166.879883,351.125178 168.951172,351.125178 C171.022461,351.125178 171.78125,352.731623 171.78125,354.549983 C171.78125,356.375178 171.022461,357.981623 168.951172,357.981623 Z M178.207031,359.382991 C181.454102,359.382991 183.245117,357.632991 183.245117,354.625178 C183.245117,351.487483 181.508789,349.723811 178.220703,349.723811 L175.417969,349.723811 L175.417969,359.382991 L178.207031,359.382991 Z M178.036133,357.790217 L177.154297,357.790217 L177.154297,351.316584 L178.193359,351.316584 C180.572266,351.316584 181.508789,352.259944 181.508789,354.549983 C181.508789,356.963069 180.168945,357.790217 178.036133,357.790217 Z M188.522461,359.519709 C191.113281,359.519709 192.220703,357.981623 192.220703,355.54803 L192.220703,349.723811 L190.484375,349.723811 L190.484375,355.418147 C190.484375,356.976741 190.081055,357.844905 188.522461,357.844905 C186.970703,357.844905 186.560547,356.976741 186.560547,355.418147 L186.560547,349.723811 L184.831055,349.723811 L184.831055,355.616389 C184.831055,357.981623 185.931641,359.519709 188.522461,359.519709 Z M198.475586,359.519709 C200.396484,359.519709 201.93457,358.54217 202.700195,356.737483 L201.09375,356.081233 C200.574219,357.380061 199.719727,357.872248 198.475586,357.872248 C196.404297,357.872248 195.522461,356.402522 195.522461,354.481623 C195.522461,352.690608 196.404297,351.220881 198.448242,351.220881 C199.706055,351.220881 200.704102,351.713069 201.066406,352.984553 L202.686523,352.341975 C201.907227,350.537288 200.375977,349.566584 198.461914,349.566584 C195.283203,349.566584 193.799805,351.904475 193.799805,354.549983 C193.799805,357.202327 195.296875,359.519709 198.475586,359.519709 Z M207.820312,359.382991 L207.820312,351.275569 L210.841797,351.275569 L210.841797,349.723811 L203.055664,349.723811 L203.055664,351.275569 L206.083984,351.275569 L206.083984,359.382991 L207.820312,359.382991 Z M162.853516,376.492366 C164.699219,376.492366 166.209961,375.39178 166.209961,373.566584 C166.209961,370.36053 161.53418,370.975764 161.53418,369.157405 C161.53418,368.54217 162.067383,368.125178 162.750977,368.125178 C163.400391,368.125178 163.974609,368.501155 164.30957,369.157405 L165.751953,368.275569 C165.088867,367.099788 164.001953,366.580256 162.8125,366.580256 C161.185547,366.580256 159.797852,367.537288 159.797852,369.246272 C159.797852,372.390803 164.473633,371.720881 164.473633,373.723811 C164.473633,374.407405 163.913086,374.95428 162.880859,374.95428 C161.855469,374.95428 161.000977,374.421077 160.87793,373.217952 L159.155273,373.655452 C159.462891,375.555842 161.144531,376.492366 162.853516,376.492366 Z M168.397461,376.382991 L169.176758,374.284358 L172.875,374.284358 L173.647461,376.382991 L175.520508,376.382991 L171.671875,366.723811 L170.373047,366.723811 L166.503906,376.382991 L168.397461,376.382991 Z M172.328125,372.800959 L169.723633,372.800959 L171.029297,369.273616 L172.328125,372.800959 Z M182.711914,376.382991 L182.711914,374.742366 L178.583008,374.742366 L178.583008,366.723811 L176.84668,366.723811 L176.84668,376.382991 L182.711914,376.382991 Z M190.539062,376.382991 L190.539062,374.742366 L185.849609,374.742366 L185.849609,372.349788 L190.217773,372.349788 L190.217773,370.757014 L185.849609,370.757014 L185.849609,368.316584 L190.539062,368.316584 L190.539062,366.723811 L184.113281,366.723811 L184.113281,376.382991 L190.539062,376.382991 Z M195.385742,376.492366 C197.231445,376.492366 198.742188,375.39178 198.742188,373.566584 C198.742188,370.36053 194.066406,370.975764 194.066406,369.157405 C194.066406,368.54217 194.599609,368.125178 195.283203,368.125178 C195.932617,368.125178 196.506836,368.501155 196.841797,369.157405 L198.28418,368.275569 C197.621094,367.099788 196.53418,366.580256 195.344727,366.580256 C193.717773,366.580256 192.330078,367.537288 192.330078,369.246272 C192.330078,372.390803 197.005859,371.720881 197.005859,373.723811 C197.005859,374.407405 196.445312,374.95428 195.413086,374.95428 C194.387695,374.95428 193.533203,374.421077 193.410156,373.217952 L191.6875,373.655452 C191.995117,375.555842 193.676758,376.492366 195.385742,376.492366 Z" id="RETAILPRODUCTSALES" fill="#000000" fill-rule="nonzero"></path>
                </g>
            </g>
        </g>
    </g>
</svg>