<?xml version="1.0" encoding="UTF-8"?>
<svg width="356px" height="356px" viewBox="0 0 356 356" version="1.1" xmlns="http://www.w3.org/2000/svg" xmlns:xlink="http://www.w3.org/1999/xlink">
    <title>Group 32</title>
    <defs>
        <linearGradient x1="0%" y1="0%" x2="100%" y2="100%" id="linearGradient-1">
            <stop stop-color="#A7E4BE" offset="0%"></stop>
            <stop stop-color="#6EC489" offset="100%"></stop>
        </linearGradient>
    </defs>
    <g id="Web" stroke="none" stroke-width="1" fill="none" fill-rule="evenodd">
        <g id="Home" transform="translate(-918.000000, -2268.000000)">
            <g id="Group-21" transform="translate(165.000000, 1630.000000)">
                <g id="Group-24" transform="translate(0.000000, 638.000000)">
                    <g id="Group-32" transform="translate(753.000000, 0.000000)">
                        <rect id="Rectangle-Copy-3" fill="url(#linearGradient-1)" x="0" y="0" width="356" height="356"></rect>
                        <g id="006-globe" transform="translate(109.000000, 94.000000)" fill="#FFFFFF" fill-rule="nonzero">
                            <path d="M114.903071,114.747281 C129.797214,99.8730469 138,80.0972812 138,59.0625 C138,38.0277187 129.797214,18.2519531 114.903071,3.37771875 L113.160657,1.63767187 L99.1628571,15.6167812 C88.6232714,5.92692187 74.5640286,0 59.1428571,0 C36.8703143,0 16.7035857,12.298125 6.51261429,32.0952187 L10.8957571,34.3451719 C13.6899286,28.9176562 17.3065143,24.110625 21.5434429,20.0303906 L34.5381143,42.9164531 L53.0376714,41.9179687 L65.8559,57.8080781 L62.3178429,80.5179375 L76.1181714,88.7870156 L87.0283857,60.2519531 L99.8012714,57.7831406 L112.521914,68.5545 C108.015886,93.8975625 85.7949286,113.203125 59.1428571,113.203125 C51.4746571,113.203125 44.1754429,111.601547 37.5570286,108.721594 L48.5306571,93.1025156 L45.7611286,80.9025 L22.8840143,72.9891094 L20.1963,69.5529844 L25.7360143,52.5085312 L5.0094,56.1211875 C5.33172857,50.087625 6.64437143,44.2138594 8.92892857,38.6229375 L4.3654,36.7634531 C1.46904286,43.8522656 0,51.3548437 0,59.0625 C0,74.4627187 5.93498571,88.5028594 15.6380286,99.0277969 L1.64022857,113.006906 L3.38297143,114.746953 C16.1446857,127.491328 32.5114857,135.324 50.1863286,137.307187 L47.3793429,143.390625 L27.1071429,143.390625 C23.0308857,143.390625 19.7142857,146.702391 19.7142857,150.773437 L19.7142857,168 L71.4646143,168 L71.4646143,163.078125 L24.6428571,163.078125 L24.6428571,150.773437 C24.6428571,149.416312 25.7481714,148.3125 27.1071429,148.3125 L91.1785714,148.3125 C92.5375429,148.3125 93.6428571,149.416312 93.6428571,150.773437 L93.6428571,163.078125 L76.3931857,163.078125 L76.3931857,168 L98.5714286,168 L98.5714286,150.773437 C98.5714286,146.702391 95.2548286,143.390625 91.1785714,143.390625 L70.9063714,143.390625 L68.0997143,137.307516 C85.7745571,135.324328 102.141357,127.491656 114.903071,114.747281 L114.903071,114.747281 Z M101.185543,52.5022969 L83.4012857,55.9397344 L73.6115,81.5452969 L67.6975429,78.001875 L71.0604714,56.4148594 L55.292,36.8674687 L37.3201286,37.8377344 L25.3253,16.7130469 C34.7470857,9.19767187 46.5776286,4.921875 59.1428571,4.921875 C89.0366143,4.921875 113.357143,29.2093594 113.357143,59.0625 C113.357143,60.2860781 113.312129,61.4988281 113.231957,62.7023906 L101.185543,52.5022969 Z M19.8956571,77.1638437 L41.5606714,84.6578906 L43.2409857,92.0620312 L33.0805714,106.523812 C16.8816714,97.6171875 5.70892857,80.6816719 4.97161429,61.1234531 L18.5219,58.7616094 L14.6999571,70.5209531 L19.8956571,77.1638437 Z M19.1228571,102.508219 C29.6624429,112.198078 43.7216857,118.125 59.1428571,118.125 C91.7542286,118.125 118.285714,91.6295625 118.285714,59.0625 C118.285714,43.6622812 112.350729,29.6221406 102.647686,19.0972031 L106.157486,15.5921719 C129.413771,40.6540312 128.845343,79.9424062 104.448257,104.306672 C80.0505143,128.670609 40.7090143,129.238594 15.6130571,106.013578 L19.1228571,102.508219 Z M12.1256,109.495969 C39.1453429,134.640844 81.6122143,134.070562 107.933414,107.786766 C134.2533,81.5023125 134.824357,39.0924844 109.644943,12.1094531 L113.1324,8.62673437 C126.0101,22.3508906 133.071429,40.1644687 133.071429,59.0625 C133.071429,78.7828125 125.381543,97.3225312 111.418571,111.266859 C83.1755571,139.470844 37.582,140.042437 8.63847143,112.978359 L12.1256,109.495969 Z M65.4800143,143.390625 L52.8060286,143.390625 L55.4201429,137.724562 C56.6562286,137.781656 57.8972429,137.8125 59.1428571,137.8125 C60.3884714,137.8125 61.6294857,137.781656 62.8655714,137.724562 L65.4800143,143.390625 Z" id="Shape"></path>
                            <polygon id="Path" points="84 153 89 153 89 158 84 158"></polygon>
                            <polygon id="Path" points="52 12 57 12 57 17 52 17"></polygon>
                            <path d="M85.8754784,19.1932186 C78.9733519,14.4200116 70.9404473,12 62,12 L62,16.9862877 C77.5145346,16.9862877 90.1133815,25.3745533 96.5651436,40 L101,37.9463143 C97.5557506,30.1384526 92.3256182,23.6536192 85.8754784,19.1932186 Z" id="Path"></path>
                        </g>
                    </g>
                </g>
            </g>
        </g>
    </g>
</svg>