<?xml version="1.0" encoding="UTF-8"?>
<svg width="356px" height="356px" viewBox="0 0 356 356" version="1.1" xmlns="http://www.w3.org/2000/svg" xmlns:xlink="http://www.w3.org/1999/xlink">
    <title>Group 31</title>
    <defs>
        <linearGradient x1="0%" y1="0%" x2="100%" y2="100%" id="linearGradient-1">
            <stop stop-color="#A7E4BE" offset="0%"></stop>
            <stop stop-color="#6EC489" offset="100%"></stop>
        </linearGradient>
    </defs>
    <g id="Web" stroke="none" stroke-width="1" fill="none" fill-rule="evenodd">
        <g id="Home" transform="translate(-541.000000, -2268.000000)">
            <g id="Group-21" transform="translate(165.000000, 1630.000000)">
                <g id="Group-24" transform="translate(0.000000, 638.000000)">
                    <g id="Group-31" transform="translate(376.000000, 0.000000)">
                        <rect id="Rectangle-Copy" fill="url(#linearGradient-1)" x="0" y="0" width="356" height="356"></rect>
                        <g id="005-people" transform="translate(107.000000, 120.000000)" fill="#FFFFFF" fill-rule="nonzero">
                            <path d="M73,45 C71.895381,45 71,45.9303099 71,47.0780202 L71,55.9219798 C71,57.0696901 71.895381,58 73,58 C74.104619,58 75,57.0696901 75,55.9219798 L75,47.0780202 C75.0002631,45.9303099 74.104619,45 73,45 Z" id="Path"></path>
                            <path d="M142.057365,40.8513139 C141.572201,39.7655175 140.305994,39.2824999 139.230477,39.7720448 C138.154398,40.2618735 137.675703,41.5389471 138.161148,42.6247434 C139.200664,44.9501525 139.728016,47.435054 139.728016,50.0099181 L139.728016,72.8925228 C139.728016,75.7753035 137.885237,78.2304066 135.326666,79.1263447 L135.326666,47.2542771 C135.326666,46.0631931 134.369558,45.0977255 133.189414,45.0977255 C132.00899,45.0977255 131.052162,46.0631931 131.052162,47.2542771 L131.052162,111.686329 L124.041616,111.686329 L124.041616,50.0104857 C124.041616,44.0553496 121.743205,38.4563752 117.56939,34.2448703 C117.132321,33.8044218 116.677251,33.3895148 116.211213,32.9905002 C118.020522,32.3627476 119.927427,32.0346816 121.850363,32.0287219 L121.904364,32.0287219 C126.66375,32.0287219 131.140195,33.899209 134.50906,37.295941 C134.92616,37.7165239 135.4732,37.9270992 136.019677,37.9270992 C136.566717,37.9270992 137.114319,37.7162401 137.531419,37.2948058 C138.365901,36.4522211 138.365338,35.0866037 137.530294,34.2448703 C135.479106,32.1768625 133.095475,30.5683173 130.502591,29.4635068 C134.873003,26.6076864 137.773579,21.6475326 137.773579,16.0130839 C137.773579,7.18339706 130.654469,0 121.903801,0 C119.687517,0 117.541827,0.45265164 115.527483,1.34546798 C114.446904,1.82451247 113.955271,3.09676157 114.430029,4.18738242 C114.904505,5.27771947 116.165368,5.77379161 117.246229,5.29474712 C118.715783,4.64343958 120.282932,4.31338701 121.904082,4.31338701 C128.297557,4.31338701 133.499075,9.56187568 133.499075,16.0130839 C133.499075,22.4657111 128.297557,27.7156187 121.904082,27.7156187 L121.857957,27.7156187 C119.281667,27.7062535 116.852754,26.8611146 114.854442,25.3079093 C116.713533,22.6848001 117.812675,19.4770751 117.812675,16.0133677 C117.812675,7.18368086 110.693564,0 101.942897,0 C100.06468,0 98.2252769,0.328633605 96.4758747,0.976251813 C95.3674512,1.38661813 94.7990361,2.62566331 95.2054487,3.74409598 C95.6121425,4.86252865 96.8398179,5.4360766 97.9485226,5.02599407 C99.2245737,4.55347685 100.568688,4.3139546 101.943178,4.3139546 C108.336653,4.3139546 113.538171,9.56244327 113.538171,16.0136515 C113.538171,22.4662787 108.336653,27.7161863 101.943178,27.7161863 L101.897053,27.7161863 C99.3207627,27.7068211 96.8918499,26.8616822 94.8935376,25.3084769 C96.752629,22.6853677 97.8517711,19.4776426 97.8517711,16.0139353 C97.8517711,7.18424845 90.7326604,0 81.9819931,0 C79.9578054,0 77.9853685,0.380851725 76.1192458,1.12950064 C75.0223537,1.56966534 74.4868454,2.82375161 74.9230709,3.93054873 C75.3590152,5.03734584 76.601597,5.57797366 77.6990516,5.13752517 C79.0600415,4.59122146 80.5009076,4.31423839 81.9817119,4.31423839 C88.3751863,4.31423839 93.5767046,9.56272707 93.5767046,16.0139353 C93.5767046,22.4665624 88.3751863,27.7164701 81.9817119,27.7164701 L81.9355862,27.7164701 C79.3592961,27.7071049 76.9303834,26.861966 74.9320711,25.3087607 C76.7911625,22.6856515 77.8903045,19.4779264 77.8903045,16.0142191 C77.8903045,7.18453224 70.7711939,0 62.0205266,0 C60.2055921,0 58.4244082,0.308200427 56.7270381,0.914384693 C55.6141145,1.31141268 55.0310742,2.5439306 55.4245491,3.66690398 C55.8180239,4.78987736 57.0392304,5.377615 58.1524352,4.9811546 C59.3910795,4.53928714 60.6924435,4.31480598 62.0205266,4.31480598 C68.414001,4.31480598 73.6155193,9.56329465 73.6155193,16.0145029 C73.6155193,22.46713 68.414001,27.7170377 62.0205266,27.7170377 L61.9744009,27.7170377 C59.3981108,27.7076725 56.9691981,26.8625335 54.9708858,25.3093283 C56.8299772,22.6862191 57.9291193,19.478494 57.9291193,16.0147867 C57.9291193,7.18509983 50.8100086,0.00170276479 42.0593413,0.00170276479 C39.838838,0.00170276479 37.6897734,0.45605717 35.6717733,1.35199524 C34.5914752,1.83160733 34.1009676,3.10442401 34.5762875,4.19447727 C35.0516074,5.28481432 36.3135957,5.77946749 37.3936125,5.29985541 C38.8654167,4.64627753 40.4350973,4.31480598 42.0593413,4.31480598 C48.4528157,4.31480598 53.654334,9.56329465 53.654334,16.0145029 C53.654334,22.46713 48.4528157,27.7170377 42.0593413,27.7170377 L42.0132156,27.7170377 C39.4369255,27.7076725 37.0080128,26.8625335 35.0094192,25.3090445 C36.8687919,22.6862191 37.9682152,19.4787778 37.9682152,16.0153542 C37.9682152,7.18538362 30.8488233,0.00170276479 22.0978748,0.00170276479 C13.3469262,0.00170276479 6.22781556,7.18368086 6.22781556,16.0133677 C6.22781556,21.6622899 9.1444234,26.6335117 13.5348041,29.4850751 C5.59274319,32.9167138 0,40.9662505 0,50.3124427 L0,72.8928066 C0,78.1708098 3.73393304,82.5849437 8.67613487,83.5890074 L8.67613487,113.843448 C8.67613487,115.034532 9.6332435,116 10.8133868,116 L33.3823627,116 C33.3843315,116 33.386019,116 33.3877065,116 L42.0537162,116 C42.055685,116 42.0573725,116 42.0590601,116 C42.0607476,116 42.0627164,116 42.0644039,116 L50.7349137,116 L53.3438292,116 L62.0140578,116 C62.0160265,116 62.0177141,116 62.0194016,116 C62.0210891,116 62.0230579,116 62.0247454,116 L70.6952552,116 L73.3041708,116 L81.9746805,116 C81.9766493,116 81.9783368,116 81.9800244,116 C81.9817119,116 81.9836807,116 81.9853682,116 L90.6555967,116 L93.2645123,116 L101.935022,116 C101.936991,116 101.938678,116 101.940366,116 C101.942053,116 101.944022,116 101.94571,116 L110.617345,116 L113.22626,116 L121.89677,116 C121.898739,116 121.900426,116 121.902114,116 C121.903801,116 121.90577,116 121.907458,116 L133.186883,116 C134.367307,116 135.324135,115.033965 135.324135,113.843165 L135.324135,83.5890074 C140.266337,82.5852275 144,78.1710936 144,72.8930903 L144,50.0104857 C144.002238,46.8197883 143.348041,43.7380678 142.057365,40.8513139 Z M111.915896,28.458308 C112.369559,28.8312134 112.839535,29.1774423 113.326105,29.4944403 C112.86738,29.6925286 112.415122,29.9073608 111.969897,30.1375178 C111.501046,29.8962928 111.025726,29.6692575 110.541687,29.463223 C111.017288,29.1521846 111.476858,28.8173075 111.915896,28.458308 Z M91.9549919,28.458308 C92.4086552,28.8312134 92.8786313,29.1774423 93.3652013,29.4944403 C92.9064755,29.6925286 92.4542184,29.9073608 92.0089928,30.1375178 C91.5401417,29.8962928 91.0648218,29.6692575 90.5807831,29.463223 C91.0563842,29.1521846 91.5156726,28.8173075 91.9549919,28.458308 Z M71.9938066,28.458308 C72.4474699,28.8312134 72.917446,29.1774423 73.4040161,29.4944403 C72.9452902,29.6925286 72.4930331,29.9073608 72.0478075,30.1375178 C71.5789564,29.8962928 71.1036365,29.6692575 70.6195978,29.463223 C71.0951989,29.1521846 71.5547686,28.8173075 71.9938066,28.458308 Z M52.0329026,28.458308 C52.4865659,28.8312134 52.956542,29.1774423 53.443112,29.4944403 C52.9843861,29.6925286 52.5321291,29.9073608 52.0869034,30.1375178 C51.6180524,29.8962928 51.1427325,29.6692575 50.6586937,29.463223 C51.1342949,29.1521846 51.5935833,28.8173075 52.0329026,28.458308 Z M10.5023195,16.0133677 C10.5023195,9.56187568 15.7041191,4.31310322 22.0978748,4.31310322 C28.4916304,4.31310322 33.69343,9.56187568 33.69343,16.0133677 C33.69343,22.4648597 28.4916304,27.7139159 22.0978748,27.7139159 C15.7041191,27.7139159 10.5023195,22.4651435 10.5023195,16.0133677 Z M33.4819267,29.4947241 C33.0226383,29.6930962 32.5698188,29.9082122 32.1240306,30.138653 C31.6546171,29.8971442 31.1784534,29.6706765 30.6938521,29.4646419 C31.1708595,29.1533198 31.631273,28.8181589 32.0711548,28.458308 C32.5248181,28.8309296 32.9950754,29.1774423 33.4819267,29.4947241 Z M39.9220893,111.686613 L35.5198959,111.686613 L35.5198959,83.5892912 C37.1492025,83.258671 38.6460382,82.5565643 39.9220893,81.5757718 L39.9220893,111.686613 Z M39.9220893,72.8933741 C39.9220893,75.7764387 38.0790294,78.2321093 35.5198959,79.1274798 L35.5198959,47.2539933 C35.5198959,46.0629093 34.5627873,45.0974417 33.3826439,45.0974417 C32.2022193,45.0974417 31.245392,46.0631931 31.245392,47.2539933 L31.245392,111.686897 L30.7745721,111.686897 C30.7726034,111.686897 30.7709158,111.686897 30.7692283,111.686897 L24.235408,111.686897 L24.235408,70.0452162 C24.235408,68.8541323 23.2785806,67.8886646 22.098156,67.8886646 C20.9177314,67.8886646 19.960904,68.8544161 19.960904,70.0452162 L19.960904,111.686897 L12.9509201,111.686897 L12.9509201,47.2539933 C12.9509201,46.0629093 11.9940927,45.0974417 10.8136681,45.0974417 C9.6332435,45.0974417 8.67641612,46.0631931 8.67641612,47.2539933 L8.67641612,79.1269122 C6.11756385,78.2315418 4.2747852,75.7761549 4.2747852,72.8933741 L4.2747852,50.3127265 C4.2747852,40.2576166 12.2483466,32.0553986 22.0492178,32.0289191 C26.8218232,32.0142484 31.3216119,33.8867221 34.7025707,37.2956572 C38.0683418,40.6921054 39.9220893,45.2075538 39.9220893,50.0110533 L39.9220893,72.8933741 L39.9220893,72.8933741 Z M59.8832746,111.686613 L55.481925,111.686613 L55.481925,83.5890074 C57.110669,83.2581034 58.6072235,82.5562805 59.8832746,81.5757718 L59.8832746,111.686613 Z M59.8832746,72.8933741 C59.8832746,75.7761549 58.040496,78.231258 55.481925,79.127196 L55.481925,47.2548447 C55.481925,46.0637607 54.5248163,45.0982931 53.344673,45.0982931 C52.1642484,45.0982931 51.207421,46.0640445 51.207421,47.2548447 L51.207421,111.686897 L50.7354762,111.686897 L50.7354762,111.686897 L44.1968745,111.686897 L44.1968745,72.8930903 L44.1968745,50.0104857 C44.1968745,44.0550658 41.8987451,38.4563752 37.7249302,34.2448703 C37.2878609,33.8044218 36.8325101,33.3895148 36.3661903,32.990784 C38.1754997,32.3630314 40.0826856,32.0349654 42.0056217,32.0290057 L42.0596226,32.0290057 C46.819009,32.0290057 51.2954536,33.8994928 54.6640372,37.2956572 C58.0298083,40.6921054 59.8835559,45.2075538 59.8835559,50.0110533 L59.8835559,72.8933741 L59.8832746,72.8933741 Z M79.8441787,111.686613 L75.442829,111.686613 L75.442829,83.5890074 C77.0715731,83.2581034 78.5681276,82.5562805 79.8441787,81.575488 L79.8441787,111.686613 Z M79.8444599,72.8930903 C79.8444599,75.7758711 78.0016813,78.2309742 75.4431103,79.1269122 L75.4431103,63.6218199 C75.4431103,62.4307359 74.4862829,61.4652682 73.3058583,61.4652682 C72.1254337,61.4652682 71.1686063,62.4307359 71.1686063,63.6218199 L71.1686063,111.686897 L70.6966615,111.686897 L70.6966615,111.686897 L64.1577786,111.686897 L64.1577786,50.0104857 C64.1577786,44.0550658 61.8596491,38.4563752 57.6858342,34.2448703 C57.2487649,33.8044218 56.7936954,33.3895148 56.3276569,32.9905002 C58.1369662,32.3630314 60.0438709,32.0349654 61.966807,32.0287219 L62.0205266,32.0287219 C66.7799131,32.0287219 71.2563577,33.899209 74.6249413,37.2953734 C77.9909936,40.6918216 79.8444599,45.2075538 79.8444599,50.0107695 L79.8444599,72.8930903 L79.8444599,72.8930903 Z M99.8050827,111.686613 L95.403733,111.686613 L95.403733,83.5890074 C97.0324771,83.2581034 98.5290316,82.5562805 99.8050827,81.575488 L99.8050827,111.686613 Z M99.8050827,72.8930903 C99.8050827,75.7758711 97.9623041,78.2309742 95.403733,79.1269122 L95.403733,47.2545609 C95.403733,46.0634769 94.4469057,45.0980093 93.2664811,45.0980093 C92.0860565,45.0980093 91.1292291,46.0637607 91.1292291,47.2545609 L91.1292291,111.686613 L90.6575655,111.686613 L84.1189639,111.686613 L84.1189639,50.0104857 C84.1189639,44.0553496 81.8205531,38.4563752 77.6467383,34.2448703 C77.209669,33.8044218 76.7545994,33.3895148 76.2885609,32.9905002 C78.0978703,32.3627476 80.0047749,32.0346816 81.9277111,32.0287219 L81.9817119,32.0287219 C86.7410984,32.0287219 91.217543,33.899209 94.5858453,37.2953734 C97.9518976,40.6918216 99.805364,45.2075538 99.805364,50.0107695 L99.805364,72.8930903 L99.8050827,72.8930903 Z M119.766268,111.686613 L115.364918,111.686613 L115.364918,83.5890074 C116.993662,83.2581034 118.490217,82.5562805 119.766268,81.575488 L119.766268,111.686613 Z M119.766268,72.8930903 C119.766268,75.7758711 117.923489,78.2309742 115.364918,79.1269122 L115.364918,47.2545609 C115.364918,46.0634769 114.40781,45.0980093 113.227666,45.0980093 C112.047242,45.0980093 111.090414,46.0637607 111.090414,47.2545609 L111.090414,111.686613 L110.618751,111.686613 L104.080149,111.686613 L104.080149,50.0104857 C104.080149,44.0553496 101.781738,38.4563752 97.6079236,34.2448703 C97.1708543,33.8044218 96.7155034,33.3895148 96.2497462,32.9905002 C98.0590556,32.3627476 99.9659602,32.0346816 101.888896,32.0287219 L101.942616,32.0287219 C106.702002,32.0287219 111.178447,33.899209 114.546749,37.2953734 C117.91252,40.6918216 119.766268,45.2075538 119.766268,50.0107695 L119.766268,72.8930903 Z" id="Shape"></path>
                        </g>
                    </g>
                </g>
            </g>
        </g>
    </g>
</svg>