<?xml version="1.0" encoding="UTF-8"?>
<svg width="116px" height="156px" viewBox="0 0 116 156" version="1.1" xmlns="http://www.w3.org/2000/svg" xmlns:xlink="http://www.w3.org/1999/xlink">
    <title>pdf_icon</title>
    <g id="Web" stroke="none" stroke-width="1" fill="none" fill-rule="evenodd">
        <g id="Investor-relations-/-Landing-page" transform="translate(-485.000000, -2010.000000)" fill="#78C67D" fill-rule="nonzero">
            <g id="Group-10" transform="translate(353.000000, 1957.000000)">
                <g id="pdf_icon" transform="translate(132.000000, 53.000000)">
                    <path d="M115.05599,33.45225 L82.8336667,0.952148438 C82.2295,0.342773438 81.4114583,0 80.5553542,0 L12.8886875,0 C5.78036458,0 0,5.83019531 0,13.0001016 L0,143.000203 C0,150.169805 5.78036458,156 12.8889896,156 L103.111312,156 C110.219635,156 116,150.169805 116,142.999898 L116,35.7498984 C116,34.8867188 115.660156,34.061625 115.05599,33.45225 Z M83.7776771,11.0958047 L104.999031,32.5001016 L90.2220208,32.5001016 C86.6695208,32.5001016 83.7776771,29.5833281 83.7776771,26.0002031 L83.7776771,11.0958047 L83.7776771,11.0958047 Z M109.555656,142.999898 C109.555656,146.583023 106.663812,149.499797 103.111312,149.499797 L12.8889896,149.499797 C9.33648958,149.499797 6.44464583,146.583023 6.44464583,142.999898 L6.44464583,13.0001016 C6.44464583,9.41697656 9.33648958,6.50020312 12.8889896,6.50020312 L77.3333333,6.50020312 L77.3333333,26.0002031 C77.3333333,33.1698047 83.1136979,39 90.2223229,39 L109.555656,39 L109.555656,142.999898 Z" id="Shape"></path>
                    <path d="M75.5704297,95.4085234 C72.5616406,93.0407969 69.7021484,90.6066484 67.7978516,88.7023516 C65.3222656,86.2267656 63.1163281,83.8273516 61.1995391,81.5421953 C64.1894375,72.3031563 65.5002031,67.5393672 65.5002031,65.0001016 C65.5002031,54.2123359 61.6026406,52 55.7502031,52 C51.3035938,52 46.0002031,54.3104453 46.0002031,65.3111875 C46.0002031,70.1608984 48.6567734,76.048375 53.9220781,82.8910469 C52.6335547,86.8233437 51.1195625,91.3589219 49.4184922,96.4718828 C48.5994922,98.9252266 47.7110234,101.197586 46.7713672,103.298711 C46.0066016,103.638437 45.2637734,103.984258 44.5465391,104.342875 C41.9630937,105.63475 39.50975,106.796219 37.2340391,107.875422 C26.8554688,112.788508 20,116.038609 20,122.455938 C20,127.115219 25.0623828,130 29.75,130 C35.7928672,130 44.9176484,121.928828 51.5826875,108.332148 C58.5015312,105.602758 67.1028594,103.580852 73.8916016,102.31457 C79.3314922,106.497625 85.339625,110.5 88.25,110.5 C96.308375,110.5 98,105.840719 98,101.933711 C98,94.2497969 89.2210391,94.2497969 84.9998984,94.2497969 C83.6891328,94.2501016 80.1727344,94.6373594 75.5704297,95.4085234 Z M29.75,123.500102 C27.8932344,123.500102 26.6363984,122.624125 26.4998984,122.455937 C26.4998984,120.151586 33.3712109,116.895391 40.0173594,113.747055 C40.4393516,113.54718 40.8680469,113.347 41.3028359,113.140727 C36.4214375,120.218617 31.5939687,123.500102 29.75,123.500102 Z M52.5001016,65.3111875 C52.5001016,58.5002031 54.6140234,58.5002031 55.7502031,58.5002031 C58.0481563,58.5002031 59.0003047,58.5002031 59.0003047,65.0001016 C59.0003047,66.3711953 58.0862422,69.7989297 56.4135078,75.1501563 C53.8614453,71.2209062 52.5001016,67.8535 52.5001016,65.3111875 Z M54.9915312,100.242391 C55.1947578,99.6775 55.3915859,99.1062109 55.5820156,98.5285234 C56.7879687,94.9103594 57.8735703,91.6602578 58.8415625,88.7340391 C60.1904141,90.2193906 61.6440781,91.7397813 63.2025547,93.2979531 C63.8119297,93.9073281 65.3225703,95.2784219 67.3350312,96.9953359 C63.329,97.8682656 59.0667266,98.9505156 54.9915312,100.242391 Z M91.5001016,101.934016 C91.5001016,103.394078 91.5001016,104.000102 88.4849141,104.019297 C87.5994922,103.828867 85.5522969,102.622914 83.0258281,100.902648 C83.9429375,100.801187 84.6190391,100.750305 84.9998984,100.750305 C89.8020781,100.750305 91.1637266,101.219828 91.5001016,101.934016 Z" id="Shape"></path>
                </g>
            </g>
        </g>
    </g>
</svg>