<?xml version="1.0" encoding="UTF-8"?>
<svg width="356px" height="356px" viewBox="0 0 356 356" version="1.1" xmlns="http://www.w3.org/2000/svg" xmlns:xlink="http://www.w3.org/1999/xlink">
    <title>01_low-cost@2x</title>
    <defs>
        <linearGradient x1="0%" y1="0%" x2="100%" y2="100%" id="linearGradient-1">
            <stop stop-color="#C7E8C9" offset="0%"></stop>
            <stop stop-color="#78C67D" offset="100%"></stop>
        </linearGradient>
    </defs>
    <g id="Web" stroke="none" stroke-width="1" fill="none" fill-rule="evenodd">
        <g id="Investor-relations-/-Landing-page" transform="translate(-166.000000, -887.000000)">
            <g id="Group-21" transform="translate(166.000000, 775.000000)">
                <g id="01_low-cost" transform="translate(0.000000, 112.000000)">
                    <rect id="Rectangle" fill="url(#linearGradient-1)" x="0" y="0" width="356" height="356"></rect>
                    <g id="002-dollar" transform="translate(87.000000, 130.000000)" fill="#FFFFFF" fill-rule="nonzero">
                        <path d="M164.857143,23.03436 C164.809607,23.0351415 164.762464,23.0351415 164.714929,23.03436 C161.469143,22.999587 158.866464,20.3544944 158.901429,17.1268562 C158.901429,15.4007086 157.494214,14.0011928 155.758571,14.0011928 L26.2414286,14.0011928 C26.1828929,13.9996748 26.1243571,13.9996748 26.0662143,14.0008021 C24.3309643,14.0445614 22.9602857,15.4792409 23.0042857,17.2049978 C22.9956429,20.4209147 20.3764643,23.0257645 17.1428571,23.03436 C15.4072143,23.03436 14,24.4338758 14,26.1600234 L14,69.919311 C14,71.6454586 15.4072143,73.0449744 17.1428571,73.0449744 C17.1640714,73.0445837 17.1852857,73.0445837 17.2061071,73.0445837 C20.4518929,73.0363788 23.0899286,75.6463077 23.0985714,78.8743366 C23.0985714,80.6004842 24.5057857,82 26.2414286,82 L155.852857,82 C157.5885,82 158.995714,80.6004842 158.995714,78.8743366 C159.004357,75.6584197 161.623536,73.0535699 164.857143,73.0449744 C166.592786,73.0449744 168,71.6454586 168,69.919311 L168,26.1600234 C168,24.4338758 166.592786,23.03436 164.857143,23.03436 Z M28.9914286,75.7643015 C27.8482143,71.5946666 24.5725714,68.3369439 20.38,67.1999838 L20.38,28.8637223 C24.5725714,27.7267622 27.8482143,24.4690395 28.9914286,20.2994046 L71.5142857,20.2994046 C68.2582857,22.5659012 65.4265714,25.382124 63.1472143,28.6207019 C52.3676071,43.9368433 56.1138929,65.0440575 71.5142857,75.7643015 L28.9914286,75.7643015 Z M71.4042857,67.463321 C60.6128929,56.7000991 60.6380357,39.2745256 71.4604643,28.5421696 C82.2828929,17.8098137 99.8043214,17.834819 110.595714,28.5980409 L110.564286,28.5824126 C115.761786,33.7374129 118.679929,40.7392896 118.67287,48.0396672 C118.6705,55.3494218 115.744107,62.3579405 110.539536,67.5191922 C99.7171071,78.2515482 82.1956786,78.2265429 71.4042857,67.463321 Z M161.62,67.2156121 C157.427429,68.3525722 154.151786,71.6102949 153.008571,75.7799298 L110.485714,75.7799298 C113.754286,73.5079633 116.595429,70.6819728 118.879893,67.4312829 C129.644179,52.1151416 125.886107,31.02043 110.485714,20.3150329 L153.008571,20.3150329 C154.151786,24.4846679 157.427429,27.7423905 161.62,28.8793506 L161.62,67.2156121 L161.62,67.2156121 Z" id="Shape"></path>
                        <path d="M101.544103,48 C99.2684497,46.5921875 96.7378734,45.6523438 94.0984886,45.234375 L94.0984886,35.171875 C95.2164966,35.3394531 96.3189605,35.6007813 97.3938336,35.953125 C98.5825672,36.3980469 99.8109381,36.7277344 101.062237,36.9375 C102.82377,36.9375 103.70473,35.96875 103.70473,34.03125 C103.70473,33.09375 103.005247,32.2605469 101.606279,31.53125 C99.2292009,30.4929688 96.686578,29.8894531 94.0984886,29.75 L94.0984886,26.125 C94.0984886,24.3992187 92.7065162,23 90.9896725,23 C89.2728288,23 87.8808564,24.3992187 87.8808564,26.125 L87.8808564,29.96875 C85.6238559,30.4324219 83.4993687,31.3988281 81.6632242,32.796875 C79.0413264,34.5792969 77.4694312,37.5527344 77.4663224,40.734375 C77.4251306,43.0769531 78.4424907,45.3125 80.2331687,46.8125 C81.1794146,47.4972656 82.2290287,48.025 83.3419848,48.375 C84.4444488,48.790625 85.5776122,49.1199219 86.7305944,49.359375 L87.8808564,49.5625 L87.8808564,60.5 C86.607019,60.2890625 85.3498914,59.9863281 84.1191889,59.59375 C82.6891335,59.0652344 81.2178862,58.6574219 79.7202141,58.375 C77.9066085,58.375 77,59.4738281 77,61.671875 C77,62.8699219 78.4922317,63.953125 81.4766952,64.921875 C83.5561046,65.5972656 85.7042965,66.0375 87.8808564,66.234375 L87.8808564,69.875 C87.8808564,71.6007813 89.2728288,73 90.9896725,73 C92.7065162,73 94.0984886,71.6007813 94.0984886,69.875 L94.0984886,66.140625 C96.6096348,65.8328125 99.0010916,64.8863281 101.046693,63.390625 C103.634393,61.4777344 105.107972,58.3980469 104.979345,55.171875 C105.182584,52.3375 103.874938,49.6078125 101.544103,48 Z M87.8808564,44.25 C87.1906992,44.1136719 86.5102571,43.9308594 85.8445818,43.703125 C85.1213935,43.4996094 84.4798115,43.0734375 84.0103803,42.484375 C83.6485918,41.9113281 83.4694463,41.240625 83.4974257,40.5625 C83.5020889,38.925 84.3566247,37.4085937 85.7513173,36.5625 C86.4072775,36.1085937 87.1246368,35.7507812 87.8808564,35.5 L87.8808564,44.25 Z M98.9482417,55.5 C98.9773868,57.1261719 98.1104157,58.6351563 96.69435,59.421875 C95.8914982,59.9175781 95.0152007,60.28125 94.0984886,60.5 L94.0984886,50.75 C95.0785428,50.9949219 96.027509,51.3515625 96.9275112,51.8125 C98.2705198,52.5285156 99.0636565,53.9761719 98.9482417,55.5 Z" id="Shape"></path>
                        <path d="M165.870038,0 L16.1456679,0 C7.24199172,0.0173684211 0.0259147394,7.26473684 0,16.2157895 L0,79.7842105 C0.0259147394,88.7352632 7.24199172,95.9826316 16.1456679,96 L165.854332,96 C174.758008,95.9826316 181.974085,88.7352632 182,79.7842105 L182,16.2157895 C181.974085,7.27065789 174.767824,0.0260526316 165.870038,0 Z M175.654815,79.7842105 C175.628901,85.2063158 171.263445,89.595 165.870038,89.6210526 L16.1456679,89.6210526 C10.752261,89.595 6.38680532,85.2063158 6.36089058,79.7842105 L6.36089058,16.2157895 C6.38680532,10.7936842 10.752261,6.405 16.1456679,6.37894737 L165.854332,6.37894737 L165.870038,6.37894737 C171.263445,6.405 175.628901,10.7936842 175.654815,16.2157895 L175.654815,79.7842105 Z" id="Shape"></path>
                    </g>
                </g>
            </g>
        </g>
    </g>
</svg>