<?xml version="1.0" encoding="UTF-8"?>
<svg width="356px" height="356px" viewBox="0 0 356 356" version="1.1" xmlns="http://www.w3.org/2000/svg" xmlns:xlink="http://www.w3.org/1999/xlink">
    <title>02_outdoor-growing</title>
    <defs>
        <linearGradient x1="0%" y1="0%" x2="100%" y2="100%" id="linearGradient-1">
            <stop stop-color="#C7E8C9" offset="0%"></stop>
            <stop stop-color="#78C67D" offset="100%"></stop>
        </linearGradient>
    </defs>
    <g id="Web" stroke="none" stroke-width="1" fill="none" fill-rule="evenodd">
        <g id="Investor-relations-/-Landing-page" transform="translate(-542.000000, -887.000000)">
            <g id="Group-21" transform="translate(166.000000, 775.000000)">
                <g id="Group-23" transform="translate(0.000000, 112.000000)">
                    <g id="02_outdoor-growing" transform="translate(376.000000, 0.000000)">
                        <rect id="Rectangle-Copy" fill="url(#linearGradient-1)" x="0" y="0" width="356" height="356"></rect>
                        <g id="001-back-in-time" transform="translate(106.000000, 106.000000)" fill="#FFFFFF" fill-rule="nonzero">
                            <path d="M129.528854,27.7359877 L134.009019,27.7359877 C135.571842,27.7359877 136.839193,26.4686358 136.839193,24.9058138 C136.839193,23.3429917 135.571842,22.0756398 134.009019,22.0756398 L123.254358,22.0756398 C121.691536,22.0756398 120.424185,23.3429917 120.424185,24.9058138 L120.424185,35.6604748 C120.424185,37.2232968 121.691536,38.4906487 123.254358,38.4906487 C124.817181,38.4906487 126.084532,37.2232968 126.084532,35.6604748 L126.084532,32.5464344 C134.671846,44.042884 139.339652,57.9919623 139.339652,72.5 C139.339652,109.355657 109.355657,139.339652 72.5,139.339652 C35.6443428,139.339652 5.6603479,109.355657 5.6603479,72.5 C5.6603479,35.6443428 35.6443428,5.6603479 72.5,5.6603479 C75.2257405,5.6603479 77.9690281,5.82591307 80.6542972,6.15223213 C82.2038174,6.33958964 83.6169233,5.23610482 83.8054129,3.68432045 C83.9941855,2.13281909 82.8892855,0.721694357 81.3375012,0.533204772 C78.4263842,0.179433028 75.4532865,0 72.5,0 C53.1345348,0 34.9280257,7.5412815 21.2347951,21.2347951 C7.5412815,34.9280257 0,53.1345348 0,72.5 C0,91.8654652 7.5412815,110.071974 21.2347951,123.765205 C34.9280257,137.458718 53.1345348,145 72.5,145 C91.8654652,145 110.071974,137.458718 123.765205,123.765205 C137.458718,110.071974 145,91.8654652 145,72.5 C145,56.1582926 139.540594,40.4700724 129.528854,27.7359877 Z" id="XMLID_1030_"></path>
                            <path d="M30.2431848,42.2733626 C28.9233793,41.4379825 27.1765528,41.8310693 26.3408928,43.150031 C19.8849593,53.3465326 17.0270302,65.6091436 18.2936703,77.6791703 C19.5789748,89.9282071 25.0920688,101.479303 33.8174344,110.204981 C44.3473167,120.734899 58.1791167,126 72.0111994,126 C85.8432822,126 99.6747994,120.735182 110.204964,110.204981 C131.265012,89.1448615 131.265012,54.8773087 110.204964,33.817472 C101.49289,25.1056507 89.9607815,19.5945174 77.732148,18.2993105 C65.6845034,17.0224855 53.4352258,19.8580835 43.2430011,26.2823659 C41.9214988,27.1152008 41.5258682,28.8614677 42.3584175,30.1826918 C43.1912496,31.5041986 44.9375104,31.8998306 46.25873,31.0672784 C65.4712758,18.957943 90.121692,21.7330226 106.205391,37.8167765 C125.060201,56.6716509 125.060201,87.3505193 106.205391,106.205394 C87.3508639,125.060551 56.671535,125.060551 37.8170081,106.205394 C21.9555863,90.3439176 19.1389453,65.097848 31.1198502,46.1759509 C31.9549447,44.8561408 31.5627076,43.1090255 30.2431848,42.2733626 Z" id="XMLID_1029_"></path>
                            <path d="M108.78362,75 L112.21638,75 C113.753495,75 115,73.8805 115,72.5 C115,71.1195 113.753495,70 112.21638,70 L108.78362,70 C107.246505,70 106,71.1195 106,72.5 C106,73.8805 107.246227,75 108.78362,75 Z" id="XMLID_1028_"></path>
                            <path d="M30,72.5 C30,73.8805 31.246505,75 32.7836199,75 L36.2163801,75 C37.753495,75 39,73.8805 39,72.5 C39,71.1195 37.753495,70 36.2163801,70 L32.7836199,70 C31.246505,70 30,71.11925 30,72.5 Z" id="XMLID_1004_"></path>
                            <path d="M75,36.2163801 L75,32.7836199 C75,31.246505 73.8805,30 72.5,30 C71.1195,30 70,31.246505 70,32.7836199 L70,36.2163801 C70,37.753495 71.1195,39 72.5,39 C73.8805,39 75,37.753495 75,36.2163801 Z" id="XMLID_1001_"></path>
                            <path d="M70,108.78362 L70,112.21638 C70,113.753495 71.1195,115 72.5,115 C73.8805,115 75,113.753495 75,112.21638 L75,108.78362 C75,107.246505 73.8805,106 72.5,106 C71.1195,106 70,107.246227 70,108.78362 Z" id="XMLID_1415_"></path>
                            <path d="M57.8521259,53.7199365 C56.7419641,52.6015337 54.9428541,52.6015337 53.8324081,53.7199365 C52.7225306,54.8386258 52.7225306,56.6525926 53.8324081,57.7715683 L63.4648944,67.4805306 C62.7267762,68.8670751 62.3069838,70.4504286 62.3069838,72.1308976 C62.3069838,77.572798 66.6993134,82 72.0983489,82 C77.4973843,82 81.8897139,77.572798 81.8897139,72.1308976 C81.8897139,70.4504286 81.4696374,68.8670751 80.7318033,67.4805306 L100.167592,47.8904339 C101.277469,46.7717446 101.277469,44.9577778 100.167592,43.8388021 C99.0574301,42.7203993 97.2583201,42.7203993 96.1478741,43.8388021 L76.7120856,63.4288988 C75.3364627,62.6849203 73.765581,62.2617951 72.0983489,62.2617951 C70.4311167,62.2617951 68.860235,62.6852068 67.4846122,63.4288988 L57.8521259,53.7199365 Z M76.205322,72.1308976 C76.205322,74.4135393 74.3630106,76.2704775 72.0983489,76.2704775 C69.8336871,76.2704775 67.9913757,74.4135393 67.9913757,72.1308976 C67.9913757,69.8482558 69.8336871,67.9913176 72.0983489,67.9913176 C74.3630106,67.9913176 76.205322,69.8482558 76.205322,72.1308976 Z" id="XMLID_996_"></path>
                            <path d="M38.2655805,38.2675 C38.7328702,37.8025 39,37.1575 39,36.5 C39,35.8425 38.7328702,35.2 38.2655805,34.7325 C37.8007896,34.26775 37.1583288,34 36.4988755,34 C35.8416712,34 35.1969614,34.2675 34.7321705,34.7325 C34.2676296,35.1975 34,35.8425 34,36.5 C34,37.16 34.2673797,37.8025 34.7321705,38.2675 C35.1969614,38.73225 35.8416712,39 36.4988755,39 C37.1583288,39 37.8007896,38.73225 38.2655805,38.2675 Z" id="XMLID_980_"></path>
                            <path d="M92.4986258,8 C93.1585128,8 93.8031583,7.73475 94.2676528,7.2675 C94.7323972,6.8025 95,6.15975 95,5.5 C95,4.8425 94.732647,4.1975 94.2676528,3.7325 C93.8031583,3.26775 93.1585128,3 92.4986258,3 C91.8414872,3 91.1968417,3.2675 90.7323472,3.7325 C90.2676028,4.1975 90,4.8425 90,5.5 C90,6.16 90.267353,6.8025 90.7323472,7.2675 C91.1968417,7.73475 91.8414872,8 92.4986258,8 Z" id="XMLID_979_"></path>
                        </g>
                    </g>
                </g>
            </g>
        </g>
    </g>
</svg>