<?xml version="1.0" encoding="UTF-8"?>
<svg width="169px" height="169px" viewBox="0 0 169 169" version="1.1" xmlns="http://www.w3.org/2000/svg" xmlns:xlink="http://www.w3.org/1999/xlink">
    <title>01_handshake</title>
    <defs>
        <linearGradient x1="0%" y1="0%" x2="100%" y2="100%" id="linearGradient-1">
            <stop stop-color="#C7E8C9" offset="0%"></stop>
            <stop stop-color="#78C67D" offset="100%"></stop>
        </linearGradient>
    </defs>
    <g id="Web" stroke="none" stroke-width="1" fill="none" fill-rule="evenodd">
        <g id="Products-/-Cultivation" transform="translate(-635.000000, -910.000000)">
            <g id="Group-20" transform="translate(259.000000, 775.000000)">
                <g id="Group-19" transform="translate(376.000000, 0.000000)">
                    <g id="01_handshake" transform="translate(0.000000, 135.000000)">
                        <circle id="Oval" fill="url(#linearGradient-1)" cx="84.5" cy="84.5" r="84.5"></circle>
                        <g id="005-handshake-1" transform="translate(35.000000, 42.000000)" fill="#FFFFFF" fill-rule="nonzero">
                            <path d="M99.6822069,49.0127147 C99.1781075,48.3823733 98.2552598,48.2769935 97.6197157,48.7763851 L94.7406264,51.0408877 L71.4706083,20.7383947 L84.7734813,12.2702398 C85.455705,11.8359357 85.653751,10.9355586 85.2158622,10.2589198 C84.7781688,9.58228097 83.8703602,9.38585619 83.1881365,9.82016029 L68.5467926,19.1406516 C67.8366394,19.5927772 67.659687,20.5809062 68.1717942,21.2476657 L70.8364313,24.717643 L68.9417128,26.1561542 L61.4192839,23.6911589 C61.2722142,23.6435055 61.1138165,23.6177417 60.958739,23.6177417 L43.7377186,23.6177417 C43.064284,23.6177417 42.4771771,24.0723857 42.3138965,24.720355 L41.34476,28.5647792 L38.8986767,27.5433316 C38.6650839,27.4457003 38.4096163,27.4100572 38.1586408,27.4391141 L31.3543729,28.2294623 L29.0424687,26.898268 L31.2414828,23.1208684 C31.6410904,22.4339628 31.3961696,21.5285492 30.7043757,21.1324065 L2.20176268,4.81074733 C1.49922661,4.40859956 0.601769498,4.64725373 0.19688841,5.34345753 C-0.208383302,6.03966132 0.0320453618,6.92996534 0.733995497,7.3319194 L23.0715957,20.1229692 L3.79316216,53.2410777 L2.20176268,52.3298527 C1.49922661,51.9275112 0.601769498,52.1663591 0.19688841,52.8625628 C-0.208383302,53.5587666 0.0320453618,54.4490707 0.733995497,54.8510247 L8.49001715,59.2924718 C9.18317826,59.6891956 10.0956744,59.4458923 10.4948914,58.7597616 L11.6171523,56.8319318 L14.7833497,58.5067726 C13.7505416,60.4925225 13.852299,62.9712715 15.2606914,64.9018132 C16.4647879,66.5520526 18.351108,67.4293778 20.2632092,67.4293778 C20.9012924,67.4293778 21.54211,67.3303906 22.1616386,67.1308664 C22.1655448,68.4306793 22.5821446,69.6801268 23.3743288,70.7236577 C24.5772533,72.3084221 26.4362298,73.148167 28.3149327,73.148167 C28.9426644,73.148167 29.5727399,73.0542163 30.1811357,72.8630218 C30.1975419,74.0779885 30.5758606,75.2995414 31.3469511,76.3564384 C32.3121813,77.6794968 33.7391284,78.5506233 35.3647074,78.8092299 C35.6951747,78.8619197 36.0258374,78.8878773 36.3541563,78.8878773 C36.9914583,78.8878773 37.6197759,78.7892774 38.2209452,78.5978892 C38.238328,79.844431 38.6381309,81.0533926 39.3902762,82.0841384 C40.3555064,83.4070031 41.7824535,84.2783233 43.4080325,84.5369299 C43.7384998,84.589426 44.0691625,84.6153846 44.3974814,84.6153846 C45.68439,84.6153846 46.9351659,84.2161415 47.9978567,83.4533005 L51.4220609,80.9958599 C52.162878,80.464312 52.760727,79.7927097 53.1921705,79.0258008 L59.2161683,82.2823066 C60.1341331,82.7785988 61.1407695,83.0308129 62.1579526,83.0308129 C62.7425205,83.0308129 63.3309945,82.9473226 63.9073593,82.7789862 C65.4868447,82.3175623 66.7907454,81.2740315 67.5786327,79.8399757 C68.1928879,78.7222528 68.434879,77.471643 68.2919109,76.2326559 C68.660464,76.2998743 69.0313609,76.3331929 69.4006952,76.3331929 C71.5858422,76.3329992 73.706341,75.1794394 74.823719,73.1462299 C75.4524273,72.0019684 75.6713716,70.7443849 75.533091,69.5385228 C75.9026207,69.6061285 76.2746894,69.6394471 76.6451956,69.6394471 C78.8305379,69.6392534 80.9510367,68.4856937 82.0682194,66.4524842 C82.682084,65.3355362 82.9240751,64.0857012 82.7816929,62.847489 C83.1479023,62.9149011 83.5189945,62.9495757 83.8920398,62.9495757 C84.4768029,62.9495757 85.0650816,62.8660854 85.6414464,62.697749 C87.2209318,62.2363251 88.5248325,61.1927943 89.3129151,59.7587385 C90.1009977,58.3248763 90.2791219,56.6725062 89.8138895,55.105757 C89.7021713,54.7291794 89.5554922,54.3690673 89.3787351,54.0273579 L91.9531382,52.214981 L93.3130934,53.9859034 C93.8037163,54.6247682 94.7572279,54.7440953 95.392772,54.2445099 L99.4443173,51.0577407 C100.079276,50.5581554 100.185916,49.6426687 99.6822069,49.0127147 Z M8.68689131,56.0435207 L6.33533883,54.6968293 L25.6137723,21.5787208 L27.9653248,22.9254122 L8.68689131,56.0435207 Z M22.1473809,63.9121346 C20.7053948,64.9475295 18.6825519,64.6259662 17.6388063,63.1952035 C16.5952561,61.7646345 16.9196687,59.758351 18.3620454,58.7231498 L28.7446184,51.2723745 C29.3213737,50.858604 29.9848475,50.6583049 30.6414853,50.6583049 C31.6080828,50.6583049 32.5600318,51.0920279 33.1983104,51.9162758 C34.2924463,53.3296044 33.9842445,55.4170535 32.5309304,56.4609718 L22.1473809,63.9121346 Z M30.1905107,69.6398346 C28.7752823,70.6554708 26.7692362,70.3561845 25.7192406,68.9726877 C24.6313547,67.5397941 25.0502982,65.422707 26.4903311,64.3892492 L34.2508449,58.8201999 C34.5332656,58.6334608 34.7943973,58.4368423 35.1108022,58.3037616 C35.5609956,58.1141168 36.0539623,58.0281083 36.5424367,58.0550344 C37.4771984,58.106562 38.35239,58.5728287 38.9219188,59.3081625 C40.0160548,60.7212973 39.7080483,62.8089402 38.2545388,63.8528584 L30.1905107,69.6398346 Z M38.2336405,75.3671471 C37.5350106,75.8688633 36.6813033,76.0705183 35.8295491,75.9347256 C34.9779903,75.7993204 34.2305325,75.342933 33.7248706,74.6498287 C32.681711,73.2198408 33.0053424,71.215107 34.4459613,70.1795184 C34.4459613,70.1795184 39.9756252,66.211118 39.9762112,66.2107306 L40.1918353,66.0559541 C41.6174151,65.0331505 43.5736568,65.3159712 44.6455272,66.6998554 C45.7398585,68.1135714 45.4312661,70.2016017 43.9771707,71.2451325 L38.2336405,75.3671471 Z M51.0033126,76.5046287 C50.8765554,77.3683941 50.413862,78.1256174 49.7009744,78.6372129 L46.2767703,81.0946534 C44.8502139,82.1186193 42.7988554,81.7908572 41.7680004,80.3775287 C40.732458,78.958195 41.0699565,76.9335088 42.4910442,75.9056687 L45.6980618,73.6043607 L45.9154437,73.4482282 C47.3205158,72.4401468 49.3136714,72.7291663 50.3689403,74.0921295 C50.9050709,74.7842653 51.1302652,75.641057 51.0033126,76.5046287 Z M86.735387,58.3651686 C85.893789,59.896662 83.90161,60.4807061 82.3547416,59.6444479 L65.3858686,50.4709846 C64.6737622,50.0864647 63.7825551,50.346621 63.3946661,51.0525105 C63.0067771,51.7583999 63.2690807,52.6425051 63.9807964,53.0274124 L78.2006578,60.7145174 C79.7641277,61.5596863 80.3424455,63.5086308 79.4906913,65.059108 C78.6385465,66.6093916 76.6735158,67.18375 75.1100459,66.3383873 L60.6819824,58.5385415 C59.9702666,58.1538279 59.0788642,58.4141779 58.6909752,59.1200674 C58.3030862,59.8259568 58.5653898,60.710062 59.2773008,61.0949693 L70.9583058,67.4098128 C72.5198226,68.2557566 73.0973592,70.2033451 72.2459956,71.7530475 C71.4045929,73.2843471 69.4124139,73.8687787 67.8653502,73.0323268 L55.6361054,66.4211027 C54.9238038,66.0365828 54.0327919,66.2967391 53.644903,67.0026285 C53.257014,67.708518 53.5193176,68.5926232 54.2310333,68.9775305 L63.711071,74.1023963 C65.2554004,74.9371047 65.8440698,76.9129753 65.0009093,78.4471806 C64.1595066,79.9788677 62.1673276,80.5623307 60.6206545,79.7262662 L53.9710734,76.1315378 C53.9945108,74.7581141 53.5556455,73.4278883 52.6970554,72.3190763 C51.5439353,70.8298123 49.8546847,70.00847 48.1125046,69.9245924 C48.1400436,69.7953859 48.1652388,69.6650172 48.1845747,69.5330988 C48.4267611,67.8844092 47.9968801,66.2486983 46.9736423,64.9271896 C45.8203269,63.4381193 44.1310763,62.6167771 42.3888962,62.5328994 C42.4164352,62.403693 42.4416304,62.2733243 42.4609662,62.1412122 C42.7031527,60.4923288 42.2732717,58.8568117 41.2500339,57.535303 C40.0967185,56.046039 38.4074679,55.2248904 36.6652878,55.1410128 C36.6928267,55.0118063 36.7180219,54.8814376 36.7373578,54.7495192 C36.9795443,53.1006359 36.5496633,51.464925 35.5264254,50.14361 C33.4803404,47.50098 29.7450048,46.9612962 27.0239226,48.9145023 L16.7811928,56.2639659 L13.0855054,54.3090163 L27.5745062,29.4190526 L30.3026196,30.9900634 C30.5770325,31.1481331 30.8959764,31.2132206 31.2102329,31.1769963 L38.1156722,30.3748316 L40.62406,31.4224304 L39.1824646,37.1419944 C39.1535584,37.2574473 39.1387147,37.3759995 39.1387147,37.4951329 L39.1387147,49.916966 C39.1387147,54.1443604 42.6064734,57.5835374 46.8685646,57.5835374 C51.1308512,57.5835374 54.5984145,54.1441667 54.5984145,49.916966 L54.5984145,37.912584 L54.8652103,37.4893215 L85.4451581,54.020578 C86.9892922,54.8552864 87.5785475,56.8305758 86.735387,58.3651686 Z M87.4355794,51.8246497 C87.2482755,51.6952495 87.053745,51.5739853 86.8504256,51.4641502 L56.424188,35.0156091 L57.5530894,33.2243468 C57.9825798,32.5424778 57.7735963,31.6444252 57.0860992,31.2184508 C56.3993834,30.7926701 55.4931373,30.9995553 55.0636469,31.6814244 L51.8863167,36.7235748 C51.7408095,36.9548679 51.6632708,37.2221915 51.6632708,37.4951329 L51.6632708,49.916966 C51.6632708,52.5388688 49.512694,54.6722278 46.8687599,54.6722278 C44.2248259,54.6722278 42.0742491,52.5390625 42.0742491,49.916966 L42.0742491,37.6743172 L44.8834168,26.5290514 L60.7224119,26.5290514 L68.7573386,29.161802 C69.2139773,29.311542 69.7280376,29.2253398 70.1096766,28.9355455 L72.614744,27.0336732 L90.1728724,49.8977885 L87.4355794,51.8246497 Z" id="Shape"></path>
                            <path d="M99.7594648,0.695511724 C99.3068666,-0.00730796175 98.3681443,-0.211332915 97.6626889,0.239775512 L89.1596585,5.67681918 C88.4542031,6.12792761 88.249413,7.06314258 88.7022132,7.76596227 C88.9920296,8.21606465 89.4809811,8.46153846 89.9806366,8.46153846 C90.2613646,8.46153846 90.5451221,8.38407337 90.7989891,8.22189969 L99.3020195,2.78485602 C100.007273,2.33334517 100.212063,1.3981302 99.7594648,0.695511724 Z" id="Path"></path>
                        </g>
                    </g>
                </g>
            </g>
        </g>
    </g>
</svg>