<?xml version="1.0" encoding="UTF-8"?>
<svg width="169px" height="169px" viewBox="0 0 169 169" version="1.1" xmlns="http://www.w3.org/2000/svg" xmlns:xlink="http://www.w3.org/1999/xlink">
    <title>02_grow</title>
    <defs>
        <linearGradient x1="0%" y1="0%" x2="100%" y2="100%" id="linearGradient-1">
            <stop stop-color="#C7E8C9" offset="0%"></stop>
            <stop stop-color="#78C67D" offset="100%"></stop>
        </linearGradient>
    </defs>
    <g id="Web" stroke="none" stroke-width="1" fill="none" fill-rule="evenodd">
        <g id="Products-/-Cultivation" transform="translate(-823.000000, -910.000000)">
            <g id="Group-20" transform="translate(259.000000, 775.000000)">
                <g id="Group-19" transform="translate(376.000000, 0.000000)">
                    <g id="Group-18" transform="translate(0.000000, 135.000000)">
                        <g id="02_grow" transform="translate(188.000000, 0.000000)">
                            <circle id="Oval-Copy" fill="url(#linearGradient-1)" cx="84.5" cy="84.5" r="84.5"></circle>
                            <g id="003-grow-plant" transform="translate(43.000000, 35.000000)" fill="#FFFFFF" fill-rule="nonzero">
                                <path d="M81.953125,96.09375 L71.7628906,96.09375 L57.7238281,75.9564453 C55.696875,73.0492187 52.3710938,71.3134766 48.8269531,71.3134766 C47.6066406,71.3134766 46.4224609,71.7222656 45.4626953,72.4542969 L45.4626953,67.9619141 C45.4710937,67.9457031 45.4818359,67.93125 45.4898437,67.9146484 L47.3894531,63.9564453 C49.2431641,60.09375 52.1183594,56.9304687 55.6921875,54.7515625 C57.4025391,57.5400391 60.3386719,59.471875 63.5726563,59.9591797 C65.1865234,60.2023438 66.8570312,60.0818359 68.4203125,59.6132812 C69.1939453,59.3814453 71.2091797,58.6212891 72.2589844,57.1886719 L83.4632812,44.265625 C84.4326172,43.1478516 83.7839844,41.3287109 82.3382812,41.0648438 L65.5126953,37.9923828 C62.2554687,37.3978516 58.9337891,39.0580078 56.8142578,41.4759766 C54.5341797,44.0769531 53.5597656,47.6755859 54.2447266,51.0689453 C50.6917969,53.1064453 47.6923828,55.9515625 45.4628906,59.4132812 L45.4628906,26.3220703 C55.5865234,24.2501953 60.0103516,17.9511719 61.9378906,12.8910156 C64.0990234,7.2171875 63.6099609,1.98027344 63.5878906,1.75996094 C63.5169922,1.04726563 63.0617187,0.430273438 62.4013672,0.152734375 C61.7414062,-0.124804687 60.9818359,-0.0189453125 60.4226562,0.429296875 L48.6769531,9.84550781 C46.8042969,11.346875 45.2632812,13.153125 44.0982422,15.1654297 C43.1689453,13.1755859 41.7861328,11.3992187 40.0154297,9.9796875 L31.3595703,3.04023438 C30.8009766,2.59238281 30.0414062,2.48613281 29.3810547,2.76347656 C28.7207031,3.04101562 28.2654297,3.65800781 28.1943359,4.37070312 C28.1777344,4.53789062 27.80625,8.51425781 29.4414062,12.8074219 C30.8828125,16.5921875 34.153125,21.2876953 41.5566406,22.9416016 L41.5566406,50.0044922 C39.6607422,47.5142578 37.2185547,45.4783203 34.3671875,44.0425781 C35.1505859,41.2994141 35.0228516,38.3904297 33.9705078,35.6857422 C32.6964844,32.4105469 30.2230469,29.8277344 27.00625,28.4128906 C25.5671875,27.7800781 23.9800781,27.5316406 22.4167969,27.6951172 C22.4167969,27.6951172 22.4167969,27.6951172 22.4166016,27.6951172 L1.81015625,29.85 C1.11269531,29.9230469 0.5078125,30.3642578 0.225390625,31.0060547 C-0.0568359375,31.6480469 0.0265625,32.3921875 0.444140625,32.9554687 L12.7818359,49.6007812 C13.7179687,50.8636719 14.9734375,51.8658203 16.4125,52.4988281 C18.1304687,53.2544922 19.9240234,53.6119141 21.690625,53.6119141 C26.0792969,53.6119141 30.2964844,51.4029297 32.7517578,47.6074219 C36.4314453,49.5048828 39.2603516,52.6359375 40.7746094,56.528125 L41.5566406,58.5386719 L41.5566406,72.4539062 C40.5970703,71.7220703 39.4130859,71.3132812 38.1925781,71.3132812 C34.6484375,71.3132812 31.3224609,73.0490234 29.2957031,75.95625 L15.2570312,96.09375 L5.06660156,96.09375 C3.98789063,96.09375 3.11347656,96.9681641 3.11347656,98.046875 C3.11347656,99.1255859 3.98789063,100 5.06660156,100 L26.0992187,100 C27.1779297,100 28.0523437,99.1255859 28.0523437,98.046875 C28.0523437,96.9681641 27.1779297,96.09375 26.0992187,96.09375 L20.0189453,96.09375 L32.5003906,78.1904297 C33.7972656,76.3302734 35.9251953,75.2197266 38.1929687,75.2197266 C38.6470703,75.2197266 39.084375,75.4109375 39.3916016,75.7423828 L39.4441406,75.7992187 C40.4894531,76.928125 41.9714844,77.5755859 43.5099609,77.5755859 L43.5101562,77.5755859 L43.5103516,77.5755859 C45.0490234,77.5755859 46.5310547,76.928125 47.5763672,75.7990234 L47.6273437,75.7441406 C47.9359375,75.4109375 48.3732422,75.2197266 48.8275391,75.2197266 C51.0949219,75.2197266 53.2230469,76.3302734 54.5201172,78.1904297 L67.0011719,96.09375 L43.7291016,96.09375 C42.6505859,96.09375 41.7759766,96.9681641 41.7759766,98.046875 C41.7759766,99.1255859 42.6505859,100 43.7291016,100 L81.953125,100 C83.0316406,100 83.90625,99.1255859 83.90625,98.046875 C83.90625,96.9681641 83.0318359,96.09375 81.953125,96.09375 L81.953125,96.09375 Z M58.6525391,45.7189453 C59.6958984,43.5455078 62.2419922,41.3660156 64.8111328,41.8349609 L78.2699219,44.2925781 L69.3076172,54.6294922 C66.6255859,57.7220703 61.2308594,55.94375 59.2199219,53.0128906 C59.4355469,52.9294922 59.6523438,52.8482422 59.8712891,52.7710938 L67.3414063,50.1458984 C68.3591797,49.7882813 68.8941406,48.6732422 68.5365234,47.6556641 C68.1787109,46.6380859 67.0642578,46.1027344 66.0462891,46.4605469 L58.5761719,49.0857422 C58.3648438,49.1599609 58.1548828,49.2371094 57.9462891,49.3164063 C57.8705078,48.0898438 58.10625,46.8574219 58.6525391,45.7189453 L58.6525391,45.7189453 Z M17.9851563,48.9232422 C17.1666016,48.5632813 16.4523438,47.9931641 15.9199219,47.2748047 L5.62050781,33.3792969 L22.8230469,31.5804688 C23.7125,31.4875 24.6152344,31.6287109 25.4339844,31.9888672 C29.5253906,33.7884766 31.6648438,38.2107422 30.7496094,42.4191406 L22.3185547,38.7107422 C21.3308594,38.2765625 20.1785156,38.7248047 19.7443359,39.7121094 C19.3101563,40.6994141 19.7583984,41.8521484 20.7457031,42.2863281 L29.1308594,45.9746094 C26.6150391,49.3582031 22.0041016,50.6912109 17.9851563,48.9232422 L17.9851563,48.9232422 Z M51.1203125,12.8931641 L59.5832031,6.10878906 C59.4005859,7.67324219 59.0267578,9.559375 58.2873047,11.5003906 C56.1414062,17.134375 51.8957031,20.7529297 45.6484375,22.2822266 C46.2347656,18.6037109 48.1572266,15.26875 51.1203125,12.8931641 Z M33.1388672,11.5390625 C32.7769531,10.6150391 32.5330078,9.70039063 32.3697266,8.85664063 L37.5722656,13.0273438 C39.4396484,14.5244141 40.7191406,16.5636719 41.2609375,18.8332031 C37.3033203,17.6572266 34.5769531,15.2117188 33.1388672,11.5390625 Z" id="Shape"></path>
                                <path d="M36.7132813,97.3007813 C36.3099609,96.3169922 35.1425781,95.8373047 34.1625,96.2441406 C33.1796875,96.6521484 32.6982422,97.8105469 33.1058594,98.7949219 C33.5125,99.7765625 34.6757813,100.25918 35.6566406,99.8496094 C36.6373047,99.4400391 37.1234375,98.2853516 36.7132813,97.3007812 L36.7132813,97.3007813 Z" id="Path"></path>
                            </g>
                        </g>
                    </g>
                </g>
            </g>
        </g>
    </g>
</svg>