<?xml version="1.0" encoding="UTF-8"?>
<svg width="169px" height="169px" viewBox="0 0 169 169" version="1.1" xmlns="http://www.w3.org/2000/svg" xmlns:xlink="http://www.w3.org/1999/xlink">
    <title>03 weed</title>
    <defs>
        <linearGradient x1="0%" y1="0%" x2="100%" y2="100%" id="linearGradient-1">
            <stop stop-color="#C7E8C9" offset="0%"></stop>
            <stop stop-color="#78C67D" offset="100%"></stop>
        </linearGradient>
    </defs>
    <g id="Web" stroke="none" stroke-width="1" fill="none" fill-rule="evenodd">
        <g id="Products-/-Cultivation" transform="translate(-1012.000000, -910.000000)">
            <g id="Group-20" transform="translate(259.000000, 775.000000)">
                <g id="Group-19" transform="translate(376.000000, 0.000000)">
                    <g id="Group-18" transform="translate(0.000000, 135.000000)">
                        <g id="03-weed" transform="translate(377.000000, 0.000000)">
                            <circle id="Oval-Copy-2" fill="url(#linearGradient-1)" cx="84.5" cy="84.5" r="84.5"></circle>
                            <g id="007-cannabis-1" transform="translate(34.000000, 36.000000)" fill="#FFFFFF" fill-rule="nonzero">
                                <path d="M99.5486875,57.8283515 C99.9975143,57.3906574 100.125444,56.7193702 99.8697803,56.1469109 C99.614117,55.5746469 99.0316967,55.2217182 98.4029876,55.2642962 C97.7736925,55.3066789 82.8303756,56.3707384 69.1768987,62.4715023 C67.7782698,63.0965006 66.412844,63.7726705 65.0773009,64.4884888 C67.2872556,61.473263 69.3638122,58.2818658 71.2866583,54.9357816 C80.6934676,38.570203 85.349509,20.3724031 85.5877896,19.4255308 C85.6233364,19.2966249 85.641891,19.1628362 85.641891,19.027485 C85.641891,18.3224089 85.149119,17.7144028 84.4596678,17.5661611 C83.9485364,17.4556145 83.431741,17.6224109 83.0803748,17.9778787 C82.3721737,18.668697 68.9897898,31.8567455 59.588254,48.210996 C58.6845457,49.7834524 57.8281028,51.3742682 57.0146285,52.9756309 C57.3005652,49.4234925 57.3919712,46.2459625 57.3919712,43.647923 C57.3919712,37.4598546 56.9083788,30.7538189 55.9546706,23.715753 C55.8437334,22.8966147 55.0867043,22.3223976 54.2710816,22.4337254 C53.4521386,22.5446626 52.8781168,23.2985667 52.989054,24.1175097 C53.9244029,31.0227635 54.3990109,37.5936433 54.3990109,43.6477277 C54.3990109,58.0111634 51.7037061,68.70918 49.9982422,74.0396336 C48.2927783,68.7177737 45.6013797,58.0381165 45.6013797,43.6477277 C45.6013797,29.3354636 48.273833,15.2815972 50.0027344,7.68845474 C50.6923808,10.7073915 51.5300738,14.7425363 52.2849545,19.3925231 C52.4171806,20.2081458 53.1839753,20.7622457 54.0019418,20.6300196 C54.8175644,20.4975981 55.3714691,19.7286549 55.2392429,18.9130322 C53.5568258,8.54919448 51.4603474,1.15878577 51.4390584,1.08534848 C51.2554652,0.442772181 50.6685528,0 50.0001953,0 C49.3320331,0 48.7447301,0.442967493 48.5611369,1.08534848 C48.5017621,1.29374633 42.6082241,22.1688824 42.6082241,43.647923 C42.6082241,46.9631479 42.7498253,50.0795453 42.9834184,52.9715293 C42.1707254,51.3715339 41.3148684,49.7824759 40.411746,48.210996 C31.0959521,32.0055732 17.8713803,18.909126 16.9422813,17.9995583 C16.5805636,17.6165516 16.0325183,17.4438958 15.5012698,17.5731923 C14.830178,17.7360825 14.3579137,18.3370573 14.3579137,19.0272897 C14.3579137,19.1647893 14.3770542,19.3007265 14.4135776,19.4313902 C14.6694362,20.4470123 19.325673,38.603406 28.7129511,54.9355862 C30.6359925,58.2814752 32.7125491,61.473263 34.9228944,64.4884888 C33.5873513,63.7724752 32.2217302,63.0963053 30.8231013,62.471307 C17.1698198,56.3705431 2.22669812,55.3064836 1.5970124,55.2641009 C0.97025637,55.2213276 0.386273653,55.5746469 0.130219692,56.1467156 C-0.125443644,56.7191749 0.0024856799,57.3902668 0.451312531,57.8281562 C0.657561945,58.0297181 5.591337,62.8193529 13.0169019,67.8459012 C13.7010796,68.3091811 14.631741,68.13008 15.095021,67.4455117 C15.5583009,66.7611386 15.3791998,65.8306725 14.6946315,65.3673926 C11.1344853,62.9574385 8.13273604,60.5726796 6.0032499,58.77288 C11.4624141,59.5390888 20.914731,61.3222869 29.602011,65.2039165 C33.6531714,67.0140676 37.4383169,69.2324207 40.856276,71.7972571 C42.819161,73.9743994 44.5574373,75.6824023 45.9279412,76.9409925 C43.7599787,76.8222429 40.7988542,76.4958766 37.3101923,75.6894336 C33.6742651,74.8490063 30.0508379,73.6273301 26.5401057,72.0581939 C23.9670661,70.9083925 21.3006674,69.5023418 18.6143469,67.8787136 C17.9065364,67.451371 16.9868125,67.6781282 16.5592746,68.3855481 C16.1317368,69.0929679 16.3584939,70.0128872 17.0659138,70.440425 C19.8573121,72.1275296 22.6340621,73.5911973 25.3188201,74.7908033 C27.2563146,75.6568165 29.227598,76.4189237 31.2168502,77.0786874 C22.2481257,80.300358 15.405567,87.2411586 15.1030288,87.551314 C14.7233423,87.940766 14.5846708,88.5056081 14.741311,89.0267004 C14.8977559,89.5475974 15.3249031,89.9427134 15.8565422,90.0583381 C16.1295883,90.1177129 20.1887565,90.9792339 25.5194054,90.9792339 C28.9285754,90.9792339 32.8578612,90.6268912 36.648866,89.4868553 C42.265061,87.7989695 46.1554797,84.8134311 48.5035199,82.4956643 L48.5035199,94.7661372 C48.5035199,95.5926974 49.1734398,96.2626174 50,96.2626174 C50.8267555,96.2626174 51.4964801,95.5925021 51.4964801,94.7661372 L51.4964801,82.4960549 C53.8445203,84.8136264 57.734939,87.7993601 63.3509387,89.487246 C67.1429201,90.6270865 71.0710339,90.9796245 74.4805946,90.9796245 C79.8104623,90.9796245 83.8708023,90.1182989 84.1434578,90.0587287 C84.6750969,89.9429087 85.1022441,89.5481833 85.258689,89.027091 C85.4153292,88.5061941 85.276853,87.9411566 84.8969712,87.5517046 C84.594433,87.2413539 77.7518743,80.3007486 68.7833451,77.0790781 C70.7722067,76.4197049 72.7434901,75.6572071 74.6807893,74.7913892 C88.3342662,68.69043 99.0973216,58.2687799 99.5486875,57.8283515 Z M42.9974808,69.7027318 C42.9904496,69.694724 42.983223,69.6867162 42.9761918,69.6789038 C38.6637041,64.8742299 34.737934,59.412136 31.3082562,53.4443795 C25.1375706,42.7086678 21.0571134,31.170224 18.9678615,24.4524696 C23.7358167,29.6647595 31.6910676,39.0455923 37.8170268,49.7022027 C40.3508086,54.1113698 42.5271697,58.6558882 44.2886881,63.2115393 C44.7121244,65.613095 45.1685684,67.7101594 45.5992312,69.4644512 C45.9783317,71.0089781 46.3568463,72.3773336 46.7115328,73.5632677 C45.6214968,72.5091692 44.3652504,71.2244072 42.9974808,69.7027318 Z M35.7875403,86.6208479 C29.7764246,88.4280693 23.1946073,88.0517032 19.480946,87.6013138 C22.3266411,85.1798363 27.602798,81.2421522 33.6268043,79.4310245 C34.712934,79.1042676 35.8236731,78.8511433 36.9322637,78.6716517 C41.0560801,79.6023131 44.4492345,79.9044607 46.7662201,79.977898 C44.736929,82.0638295 41.1189705,85.018704 35.7875403,86.6208479 Z M54.4011594,69.4646466 C54.9212751,67.3443401 55.3540864,65.2490335 55.7148275,63.2031409 C57.4759553,58.6496382 59.6509492,54.1080495 62.1829732,49.702398 C68.3091277,39.0457876 76.2645739,29.6643689 81.0323338,24.4524696 C78.9430819,31.170224 74.8626247,42.7086678 68.6919391,53.4443795 C65.2622614,59.412136 61.3362959,64.8744252 57.0241988,69.6789038 C57.0169723,69.6869116 57.0097457,69.694724 57.0029098,69.7027318 C55.6335778,71.2259697 54.3775266,72.5107317 53.2882719,73.5644396 C53.643349,72.3785055 54.0220589,71.009564 54.4011594,69.4646466 Z M80.5163196,87.6015091 C76.8016817,88.0518985 70.221427,88.427288 64.2124597,86.6208479 C58.8806389,85.018704 55.2622897,82.0632436 53.2337799,79.9780933 C55.5507655,79.9044607 58.9439199,79.6021178 63.0677363,78.671847 C64.1765223,78.8513387 65.2872613,79.1044629 66.3737816,79.4312198 C72.3837255,81.2380506 77.6661324,85.1786644 80.5163196,87.6015091 Z M62.6903937,75.6894336 C59.2021223,76.495486 56.2409979,76.8220475 54.0732306,76.9409925 C55.4423674,75.6833789 57.1794718,73.9763525 59.1441147,71.7972571 C62.562269,69.2324207 66.3474145,67.0138723 70.3981843,65.2039165 C79.0839018,61.3230681 88.5334844,59.53987 93.9930392,58.773466 C89.7826996,62.3275574 82.1555728,68.173244 73.4598943,72.0585845 C69.9495527,73.6275254 66.3261255,74.8490063 62.6903937,75.6894336 Z" id="Shape"></path>
                            </g>
                        </g>
                    </g>
                </g>
            </g>
        </g>
    </g>
</svg>