<?xml version="1.0" encoding="UTF-8"?>
<svg width="356px" height="356px" viewBox="0 0 356 356" version="1.1" xmlns="http://www.w3.org/2000/svg" xmlns:xlink="http://www.w3.org/1999/xlink">
    <title>Group 30</title>
    <defs>
        <linearGradient x1="0%" y1="0%" x2="100%" y2="100%" id="linearGradient-1">
            <stop stop-color="#A7E4BE" offset="0%"></stop>
            <stop stop-color="#6EC489" offset="100%"></stop>
        </linearGradient>
    </defs>
    <g id="Web" stroke="none" stroke-width="1" fill="none" fill-rule="evenodd">
        <g id="Home" transform="translate(-918.000000, -1742.000000)">
            <g id="Group-21" transform="translate(165.000000, 1630.000000)">
                <g id="Group-23" transform="translate(0.000000, 112.000000)">
                    <g id="Group-30" transform="translate(753.000000, 0.000000)">
                        <rect id="Rectangle-Copy-3" fill="url(#linearGradient-1)" x="0" y="0" width="356" height="356"></rect>
                        <g id="003-driving-license" transform="translate(109.000000, 81.000000)" fill="#FFFFFF" fill-rule="nonzero">
                            <path d="M131.400089,0 L6.59991145,0 C2.96053171,0 0,2.97442042 0,6.63002897 L0,60.6587033 C0,62.2283153 1.26605159,63.5001443 2.82853348,63.5001443 C4.39101538,63.5001443 5.65706696,62.2283153 5.65706696,60.6587033 L5.65706696,25.7381513 C16.0660702,24.4477582 24.3363249,16.1397637 25.6212334,5.68288197 L112.378767,5.68288197 C113.663298,16.1393848 121.933553,24.4473794 132.342933,25.7381513 L132.342933,146.261849 C121.93393,147.552242 113.663675,155.860236 112.378767,166.317118 L104.921244,166.317118 C103.358762,166.317118 102.09271,167.588947 102.09271,169.158559 C102.09271,170.728171 103.358762,172 104.921244,172 L131.400089,172 C135.039468,172 138,169.02558 138,165.369971 L138,6.63002897 C138,2.97442042 135.039091,0 131.400089,0 Z M5.65706696,20.0003348 L5.65706696,6.63002897 C5.65706696,6.10758268 6.07983843,5.68288197 6.59991145,5.68288197 L19.9094815,5.68288197 C18.706789,13.0016762 12.9429921,18.7921541 5.65706696,20.0003348 Z M118.090519,5.68288197 L131.400089,5.68288197 C131.920162,5.68288197 132.342933,6.10758268 132.342933,6.63002897 L132.342933,20.0003348 C125.057008,18.7921541 119.293211,13.0016762 118.090519,5.68288197 Z M131.400089,166.316739 L118.090519,166.316739 C119.293211,158.997945 125.057385,153.207467 132.342933,151.999286 L132.342933,165.369592 C132.342933,165.892038 131.920162,166.316739 131.400089,166.316739 Z" id="Shape"></path>
                            <path d="M92.1580484,166.318289 L82.6276585,166.318289 L82.6276585,162.664932 C86.2683879,159.164004 88.5411913,154.248751 88.5411913,148.809478 C88.5411913,138.208109 79.9221206,129.582623 69.327325,129.582623 C58.7325295,129.582623 50.1134587,138.20735 50.1134587,148.809099 C50.1134587,154.248372 52.3862621,159.164004 56.0269916,162.664932 L56.0269916,166.318668 L25.7427765,166.318668 C24.4521515,155.853802 16.1434218,147.538861 5.68579782,146.246631 L5.68579782,73.8438167 C5.68579782,72.2728923 4.41374029,71 2.84384623,71 C1.27395217,71 0.0018946344,72.2728923 0.0018946344,73.8438167 L0.0018946344,148.871663 C0.0018946344,148.884176 0,148.89593 0,148.908443 C0,148.920956 0.00151570752,148.93271 0.0018946344,148.945223 L0.0018946344,165.37035 C0.0018946344,169.029394 2.97684956,172.005922 6.63311502,172.005922 L56.0269916,172.005922 L56.0269916,190.013348 C56.0269916,191.587306 56.9553624,193.017556 58.3926321,193.656846 C58.911004,193.887385 59.4615848,194 60.0083763,194 C60.9765345,194 61.932567,193.647367 62.6782951,192.97433 L69.327325,186.97236 L75.975976,192.973951 C77.1430708,194.02768 78.8255062,194.295757 80.262018,193.656846 C81.6992876,193.017556 82.6276585,191.587685 82.6276585,190.013348 L82.6276585,172.005922 L92.1580484,172.005922 C93.7279425,172.005922 95,170.73303 95,169.162105 C95,167.591181 93.7279425,166.318289 92.1580484,166.318289 L92.1580484,166.318289 Z M5.68579782,165.37035 L5.68579782,151.988865 C13.0051494,153.198435 18.79591,158.993754 20.0039289,166.318289 L6.63311502,166.318289 C6.11057485,166.318289 5.68579782,165.893233 5.68579782,165.37035 Z M69.327325,135.270257 C76.7876374,135.270257 82.8572882,141.343891 82.8572882,148.809478 C82.8572882,156.274686 76.7876374,162.348321 69.327325,162.348321 C61.8670126,162.348321 55.7973619,156.274686 55.7973619,148.809099 C55.7973619,141.343891 61.8670126,135.270257 69.327325,135.270257 L69.327325,135.270257 Z M76.9437553,186.187088 L71.9995174,181.723812 C70.4758524,180.344751 68.1784187,180.344751 66.658543,181.720779 L61.7108947,186.187088 L61.7108947,166.456688 C64.0477368,167.470603 66.622545,168.035575 69.327325,168.035575 C72.0321051,168.035575 74.6069132,167.470603 76.9437553,166.456688 L76.9437553,186.187088 Z" id="Shape"></path>
                            <path d="M119,136 C119,134.3428 117.75797,133 116.225134,133 L97.7748659,133 C96.24203,133 95,134.3428 95,136 C95,137.6572 96.24203,139 97.7748659,139 L116.225134,139 C117.7576,139 119,137.6568 119,136 Z" id="Path"></path>
                            <path d="M19,136 C19,137.6572 20.24203,139 21.7748659,139 L40.2251341,139 C41.75797,139 43,137.6572 43,136 C43,134.3428 41.75797,133 40.2251341,133 L21.7748659,133 C20.2424,133 19,134.3428 19,136 Z" id="Path"></path>
                            <path d="M69.5,24 C53.1453151,24 40,37.3426732 40,53.4998107 C40,70.1151079 53.9124438,83 69.5,83 C84.9046721,83 99,70.3207119 99,53.4998107 C99,37.3381295 85.8501412,24 69.5,24 L69.5,24 Z M69.5,29.6800454 C78.9516622,29.6800454 87.1341163,35.2135555 90.9807406,43.2105263 C84.0811257,40.9462325 76.6021884,39.9613783 69.2819022,39.9799318 C62.0986844,40.0007573 54.7905147,40.9890193 48.019638,43.2105263 C51.8658837,35.2131768 60.0483378,29.6800454 69.5,29.6800454 L69.5,29.6800454 Z M93.3203697,53.5001893 C93.3203697,54.3975767 93.2658452,55.2820901 93.1689128,56.1541083 L85.4256835,57.2165846 L86.1716083,52.039379 C86.3844051,50.5577433 86.2923951,49.0655055 85.9262482,47.6463461 C87.3503209,48.0136312 88.7319856,48.4271109 90.0595046,48.8898145 C90.9962649,49.2184778 91.9769478,49.381295 92.9576306,49.3884892 C93.1916314,50.7254828 93.3203697,52.0976903 93.3203697,53.5001893 L93.3203697,53.5001893 Z M45.6796303,53.5001893 C45.6796303,52.0988262 45.8083686,50.727376 46.0416121,49.3915184 C47.0219163,49.3843241 48.0007059,49.2199924 48.9351945,48.8920863 C50.2649852,48.4286255 51.6485432,48.0147671 53.0733731,47.6471034 C52.7076049,49.0666414 52.6152163,50.5585006 52.8283917,52.040515 L53.5739379,57.2169633 L45.8310872,56.1544869 C45.7337762,55.2820901 45.6796303,54.3975767 45.6796303,53.5001893 L45.6796303,53.5001893 Z M62.3822873,61.3070807 C62.3694134,61.3006437 62.3569182,61.2938281 62.3440444,61.2873911 C61.4228084,60.8186293 60.6484854,60.0772435 60.0831729,59.158652 C59.6572006,58.465354 59.3823065,57.7054146 59.266442,56.8992806 L58.4500898,51.2317304 C58.2221473,49.6455888 58.6651585,48.0988262 59.698094,46.8761833 C60.030163,46.483529 60.5186112,46.2302158 61.0748363,46.1560015 C63.4402131,45.8716395 66.1618919,45.6849678 68.9237068,45.6630064 C71.7029393,45.6410451 74.862707,45.7879591 77.9262996,46.1563802 C78.4821461,46.2305945 78.9702156,46.4839076 79.301906,46.8761833 C80.3348415,48.0992048 80.7778527,49.6455888 80.5506674,51.2305945 L79.733558,56.8996592 C79.6176935,57.7054146 79.343178,58.465354 78.9183417,59.1567588 C78.3515146,60.0783794 77.5760557,60.8227944 76.6514119,61.2900417 C76.6445963,61.2934495 76.6381594,61.2968573 76.6317225,61.3002651 C75.7953023,61.7406285 74.8524836,61.9814464 73.8657425,61.9814464 L65.1353934,61.9814464 C64.1535746,61.9814464 63.2152997,61.7425218 62.3822873,61.3070807 L62.3822873,61.3070807 Z M47.2873444,62.0870882 L56.0585868,63.2907989 C56.7984533,64.2226429 57.6659222,65.0208254 58.627673,65.6724725 L61.0521178,75.7675123 C54.7503786,73.3687997 49.7246631,68.3699356 47.2873444,62.0870882 L47.2873444,62.0870882 Z M67.2398858,77.2105263 L64.9453151,67.6550549 C65.0085483,67.6561908 65.0714029,67.6611132 65.1350148,67.6611132 C65.1350148,67.6611132 73.9918303,67.6561908 74.0550635,67.6550549 L71.7604929,77.2105263 C71.0160827,77.2809542 70.2629637,77.3207119 69.5003786,77.3207119 C68.7377936,77.3207119 67.984296,77.2809542 67.2398858,77.2105263 L67.2398858,77.2105263 Z M77.9482608,75.7675123 L80.3727057,65.6720939 C81.3340778,65.0204468 82.2015467,64.2222643 82.9414132,63.2907989 L91.7130343,62.0870882 C89.2753369,68.3699356 84.2496214,73.3687997 77.9482608,75.7675123 Z" id="Shape"></path>
                            <path d="M92.2098367,18.759726 C85.456915,14.3372881 77.6039596,12 69.5,12 C46.6170309,12 28,30.6170309 28,53.5 C28,76.3829691 46.6170309,95 69.5,95 C92.3829691,95 111,76.3829691 111,53.5 C111,44.5935072 108.219674,36.1028347 102.959925,28.9465673 C102.032646,27.6843637 100.25785,27.4133245 98.996402,28.3409818 C97.7345764,29.268261 97.4635372,31.0426796 98.3908164,32.3045053 C102.930062,38.4805708 105.329345,45.8099706 105.329345,53.5 C105.329345,73.2563785 89.2563785,89.3297232 69.499622,89.3297232 C49.7428655,89.3297232 33.6698988,73.2567565 33.6698988,53.5 C33.6698988,33.7432435 49.7436215,17.6702768 69.5,17.6702768 C76.4974996,17.6702768 83.2761265,19.6873833 89.102903,23.5034796 C90.4127369,24.3612035 92.1697667,23.9949036 93.0282466,22.6850696 C93.8863485,21.3748577 93.5196706,19.6174499 92.2098367,18.759726 L92.2098367,18.759726 Z" id="Path"></path>
                            <path d="M96.1601848,111 L42.8398152,111 C41.2711013,111 40,112.3428 40,114 C40,115.6572 41.2711013,117 42.8398152,117 L96.1601848,117 C97.7288987,117 99,115.6572 99,114 C99,112.3428 97.7288987,111 96.1601848,111 Z" id="Path"></path>
                        </g>
                    </g>
                </g>
            </g>
        </g>
    </g>
</svg>