<?xml version="1.0" encoding="UTF-8"?>
<svg width="356px" height="356px" viewBox="0 0 356 356" version="1.1" xmlns="http://www.w3.org/2000/svg" xmlns:xlink="http://www.w3.org/1999/xlink">
    <title>Group 16</title>
    <defs>
        <linearGradient x1="0%" y1="0%" x2="100%" y2="100%" id="linearGradient-1">
            <stop stop-color="#A7E4BE" offset="0%"></stop>
            <stop stop-color="#6EC489" offset="100%"></stop>
        </linearGradient>
    </defs>
    <g id="Web" stroke="none" stroke-width="1" fill="none" fill-rule="evenodd">
        <g id="Home" transform="translate(-165.000000, -2268.000000)">
            <g id="Group-21" transform="translate(165.000000, 1630.000000)">
                <g id="Group-16" transform="translate(0.000000, 638.000000)">
                    <rect id="Rectangle" fill="url(#linearGradient-1)" x="0" y="0" width="356" height="356"></rect>
                    <g id="002-dollar" transform="translate(106.000000, 105.000000)" fill="#FFFFFF" fill-rule="nonzero">
                        <g id="004-pills">
                            <path d="M62.6450216,82.4805195 L55.4891775,82.4805195 L55.4891775,75.3246753 C55.4891775,74.0074129 54.4211582,72.9393939 53.1038961,72.9393939 L43.5627706,72.9393939 C42.2455082,72.9393939 41.1774892,74.0074129 41.1774892,75.3246753 L41.1774892,82.4805195 L34.021645,82.4805195 C32.7043826,82.4805195 31.6363636,83.5485385 31.6363636,84.8658009 L31.6363636,94.4069264 C31.6363636,95.7241888 32.7043826,96.7922078 34.021645,96.7922078 L41.1774892,96.7922078 L41.1774892,103.948052 C41.1774892,105.265314 42.2455082,106.333333 43.5627706,106.333333 L53.1038961,106.333333 C54.4211582,106.333333 55.4891775,105.265314 55.4891775,103.948052 L55.4891775,96.7922078 L62.6450216,96.7922078 C63.9622837,96.7922078 65.030303,95.7241888 65.030303,94.4069264 L65.030303,84.8658009 C65.030303,83.5485385 63.9622837,82.4805195 62.6450216,82.4805195 Z M60.2597403,92.021645 L53.1038961,92.021645 C51.7866337,92.021645 50.7186147,93.089664 50.7186147,94.4069264 L50.7186147,101.562771 L45.9480519,101.562771 L45.9480519,94.4069264 C45.9480519,93.089664 44.8800327,92.021645 43.5627706,92.021645 L36.4069264,92.021645 L36.4069264,87.2510823 L43.5627706,87.2510823 C44.8800327,87.2510823 45.9480519,86.1830633 45.9480519,84.8658009 L45.9480519,77.7099567 L50.7186147,77.7099567 L50.7186147,84.8658009 C50.7186147,86.1830633 51.7866337,87.2510823 53.1038961,87.2510823 L60.2597403,87.2510823 L60.2597403,92.021645 Z" id="Shape"></path>
                            <path d="M137.216139,99.5972278 C131.044909,93.3884008 122.195665,90.6432101 113.594167,92.2688537 L113.594167,84.561792 C113.582369,75.2267271 106.016684,67.6612306 96.6813865,67.6494336 L96.6813865,48.321024 C96.3156663,41.3984711 91.3725479,35.571871 84.6008293,34.0830739 L84.6008293,24.160512 L87.0169407,24.160512 C88.3512286,24.160512 89.4330522,23.0787157 89.4330522,21.7444608 L89.4330522,2.4160512 C89.4330522,1.08179629 88.3512286,0 87.0169407,0 L9.70137466,0 C8.36708648,0 7.28526323,1.08179629 7.28526323,2.4160512 L7.28526323,21.7444608 C7.28526323,23.0787157 8.36708648,24.160512 9.70137466,24.160512 L12.1174861,24.160512 L12.1174861,34.0830739 C5.34576752,35.571871 0.402648749,41.3984711 0.0369289064,48.321024 L0.0369289064,132.882816 C-0.229692917,136.161237 0.957127599,139.39129 3.28239899,141.717683 C5.60884974,144.042896 8.83898325,145.229687 12.1174861,144.963072 L84.6008293,144.963072 C86.6193678,144.992565 88.6190301,144.574947 90.4570682,143.74089 C92.4343156,144.545454 94.5472334,144.960713 96.6813865,144.963072 C100.100278,144.947736 103.434229,143.887174 106.234936,141.926492 C117.856574,147.958362 132.142069,144.612698 139.876457,134.046012 C147.610845,123.479328 146.480652,108.850893 137.216139,99.5972278 Z M131.989882,101.406907 L113.594167,119.802164 L113.594167,97.1835362 C120.049714,95.7147942 126.822613,97.2696551 131.989882,101.406907 Z M105.225077,76.0336505 C107.501979,78.2845419 108.77728,81.3588725 108.76208,84.561792 L108.76208,103.890202 L84.6007593,103.890202 L84.6007593,84.561792 C84.5807738,78.6455338 88.8703151,73.5951846 94.712397,72.6584931 C95.3612552,72.5369826 96.020731,72.4779968 96.6813865,72.4813858 C99.8914642,72.4673795 102.97059,73.7473675 105.225077,76.0336505 L105.225077,76.0336505 Z M12.1174861,4.8321024 L16.949709,4.8321024 L16.949709,14.4963072 C16.949709,15.8305621 18.0315322,16.9123584 19.3658204,16.9123584 C20.7001083,16.9123584 21.7819319,15.8305621 21.7819319,14.4963072 L21.7819319,4.8321024 L26.6141547,4.8321024 L26.6141547,14.4963072 C26.6141547,15.8305621 27.695978,16.9123584 29.0302662,16.9123584 C30.3645541,16.9123584 31.4463776,15.8305621 31.4463776,14.4963072 L31.4463776,4.8321024 L36.2786005,4.8321024 L36.2786005,14.4963072 C36.2786005,15.8305621 37.3604238,16.9123584 38.6947119,16.9123584 C40.0289998,16.9123584 41.1108234,15.8305621 41.1108234,14.4963072 L41.1108234,4.8321024 L45.9430463,4.8321024 L45.9430463,14.4963072 C45.9430463,15.8305621 47.0248695,16.9123584 48.3591577,16.9123584 C49.6934456,16.9123584 50.7752691,15.8305621 50.7752691,14.4963072 L50.7752691,4.8321024 L55.607492,4.8321024 L55.607492,14.4963072 C55.607492,15.8305621 56.6893153,16.9123584 58.0236035,16.9123584 C59.3578913,16.9123584 60.4397149,15.8305621 60.4397149,14.4963072 L60.4397149,4.8321024 L65.2719378,4.8321024 L65.2719378,14.4963072 C65.2719378,15.8305621 66.353761,16.9123584 67.6880492,16.9123584 C69.0223371,16.9123584 70.1041607,15.8305621 70.1041607,14.4963072 L70.1041607,4.8321024 L74.9363835,4.8321024 L74.9363835,14.4963072 C74.9363835,15.8305621 76.0182068,16.9123584 77.352495,16.9123584 C78.6867829,16.9123584 79.7686064,15.8305621 79.7686064,14.4963072 L79.7686064,4.8321024 L84.6008293,4.8321024 L84.6008293,19.3284096 L12.1174861,19.3284096 L12.1174861,4.8321024 Z M79.7686064,24.160512 L79.7686064,33.8247168 L16.949709,33.8247168 L16.949709,24.160512 L79.7686064,24.160512 Z M4.86915179,48.321024 C5.31863338,43.1810167 9.3934618,39.1062896 14.5335975,38.6568192 L82.1847179,38.6568192 C87.3248533,39.1062896 91.3996817,43.1810167 91.8491636,48.321024 L91.8491636,57.9852288 L4.86915179,57.9852288 L4.86915179,48.321024 Z M4.86915179,62.8173312 L91.8491636,62.8173312 L91.8491636,68.3737773 C84.6680745,70.479564 79.7426519,77.0788756 79.7686064,84.561792 L79.7686064,115.970458 L4.86915179,115.970458 L4.86915179,62.8173312 Z M12.1174861,140.13097 C10.1284411,140.384608 8.13349774,139.703914 6.71544781,138.28472 C5.29621821,136.866705 4.6155072,134.871812 4.86915179,132.882816 L4.86915179,120.80256 L79.7686064,120.80256 L79.7686064,128.050714 C79.7922013,132.587888 81.6290593,136.92805 84.8709901,140.101477 C84.7742511,140.101477 84.6999276,140.13097 84.6008293,140.13097 L12.1174861,140.13097 Z M91.4185576,138.906428 C91.353672,138.874576 91.2887861,138.845083 91.2180016,138.819129 C87.1714867,136.751093 84.6185255,132.596146 84.6008293,128.050714 L84.6008293,108.722304 L108.761944,108.722304 L108.761944,128.050714 C108.763123,131.611086 107.188168,134.989782 104.461784,137.279605 C100.805764,140.325622 95.7104588,140.961487 91.4185576,138.906428 L91.4185576,138.906428 Z M118.426389,140.130977 C115.539561,140.133329 112.682226,139.557629 110.020728,138.439262 C110.032526,138.422746 110.041964,138.401511 110.0573,138.383816 C110.556331,137.731435 111.008172,137.043662 111.408105,136.325217 C111.501304,136.156518 111.588605,135.987819 111.678266,135.815582 C112.036907,135.132528 112.348359,134.4247 112.610262,133.699177 C112.632677,133.641371 112.658631,133.588284 112.678687,133.530478 C112.93823,132.751868 113.142325,131.955562 113.287434,131.148639 C113.324005,130.952806 113.354679,130.756974 113.384172,130.558783 C113.517483,129.729445 113.588268,128.890669 113.594167,128.050714 L113.594167,126.635059 L135.406415,104.823354 C140.629132,111.347164 141.64607,120.288205 138.024262,127.81831 C134.402454,135.349595 126.783681,140.136868 118.426389,140.130977 Z" id="Shape"></path>
                        </g>
                    </g>
                </g>
            </g>
        </g>
    </g>
</svg>