<svg width="20" height="20" viewBox="0 0 20 20" fill="none" xmlns="http://www.w3.org/2000/svg">
<ellipse cx="10" cy="9.99989" rx="10" ry="9.95789" fill="white"/>
<path fill-rule="evenodd" clip-rule="evenodd" d="M0.0495605 9C0.551179 3.94668 4.81383 0 9.99809 0C15.1823 0 19.4485 3.94668 19.9502 9H15.247V8C15.247 6.34315 13.9041 5 12.2476 5H8.24846C6.59195 5 5.24909 6.34315 5.24909 8V9H0.0495605Z" fill="#009BDE"/>
<path fill-rule="evenodd" clip-rule="evenodd" d="M5.253 11H0.0534668C0.555086 16.0533 4.81774 20 10.002 20C15.1863 20 19.4489 16.0533 19.9505 11H14.2511C13.6989 11 13.2513 10.5523 13.2513 10V8C13.2513 7.44772 12.8037 7 12.2515 7H8.25237C7.7002 7 7.25258 7.44772 7.25258 8V9H8.25237C9.90887 9 11.2517 10.3431 11.2517 12V14C11.2517 14.5523 10.8041 15 10.2519 15H8.25237C6.59586 15 5.253 13.6569 5.253 12V11ZM7.25269 12V11H8.25247C8.80464 11 9.25226 11.4477 9.25226 12V13H8.25247C7.70031 13 7.25269 12.5523 7.25269 12Z" fill="#00B970"/>
</svg>
